<?xml version="1.0" standalone="no"?>
<!DOCTYPE svg PUBLIC "-//W3C//DTD SVG 20010904//EN"
 "http://www.w3.org/TR/2001/REC-SVG-20010904/DTD/svg10.dtd">
<svg version="1.0" xmlns="http://www.w3.org/2000/svg"
 width="1216.000000pt" height="1216.000000pt" viewBox="0 0 1216.000000 1216.000000"
 preserveAspectRatio="xMidYMid meet">
<metadata>
Created by potrace 1.14, written by Peter Selinger 2001-2017
</metadata>
<g transform="translate(0.000000,1216.000000) scale(0.100000,-0.100000)"
fill="#000000" stroke="none">
<path d="M4005 10375 c-25 -25 -145 -203 -145 -216 0 -5 -3 -9 -8 -9 -4 0 -16
-16 -26 -35 -11 -19 -24 -35 -29 -35 -6 0 -8 -3 -4 -6 3 -3 1 -11 -4 -18 -14
-16 -52 -73 -95 -141 -21 -33 -44 -66 -50 -73 -7 -6 -16 -21 -19 -32 -3 -11
-10 -20 -15 -20 -5 0 -12 -9 -15 -20 -3 -11 -12 -26 -18 -32 -12 -13 -68 -95
-77 -113 -7 -13 -83 -129 -90 -135 -3 -3 -138 -205 -300 -450 -162 -245 -299
-449 -303 -455 -5 -5 -201 -300 -437 -655 -236 -355 -433 -650 -439 -657 -6
-7 -11 -17 -11 -23 0 -5 -4 -10 -10 -10 -5 0 -10 -4 -10 -9 0 -12 -122 -195
-132 -199 -5 -2 -8 -10 -8 -18 0 -8 -4 -14 -10 -14 -5 0 -10 -4 -10 -9 0 -12
-122 -195 -132 -199 -5 -2 -8 -10 -8 -18 0 -8 -4 -14 -10 -14 -5 0 -10 -5 -10
-10 0 -9 -121 -192 -148 -225 -5 -6 -11 -15 -13 -21 -8 -21 -563 -849 -571
-852 -4 -2 -8 -8 -8 -12 0 -12 -202 -314 -212 -318 -4 -2 -8 -8 -8 -13 0 -11
-142 -223 -152 -227 -4 -2 -8 -9 -8 -15 0 -7 -18 -36 -40 -65 -22 -29 -40 -55
-40 -58 0 -2 -27 -45 -60 -95 -34 -49 -63 -95 -65 -102 -4 -9 530 -12 2547
-11 1404 1 2561 5 2571 9 9 4 17 11 17 15 0 8 199 311 226 343 7 9 14 21 14
25 0 4 9 18 20 32 11 14 113 165 226 335 113 171 212 318 219 328 8 9 15 20
15 24 0 3 11 21 25 39 14 18 25 37 25 42 0 6 7 12 15 16 8 3 15 12 15 19 0 8
9 22 20 32 11 10 17 21 15 25 -3 5 -2 10 2 12 5 1 21 23 37 47 16 25 33 50 38
55 5 6 81 121 171 256 89 135 165 247 169 248 5 2 8 8 8 12 0 5 25 46 55 90
30 44 55 85 55 90 0 4 4 10 8 12 5 2 53 71 107 153 55 83 103 152 107 153 5 2
8 8 8 13 0 6 20 39 45 75 25 35 45 68 45 73 0 5 4 11 8 13 10 4 152 216 152
228 0 4 4 10 8 12 10 4 152 218 152 228 0 5 4 10 8 12 10 4 152 216 152 228 0
4 4 10 8 12 5 2 32 39 60 83 28 44 58 87 67 96 8 9 15 20 15 25 0 6 9 20 20
32 12 12 18 22 15 22 -4 0 0 7 7 15 27 30 38 44 38 50 0 7 55 88 75 112 6 6
24 34 40 62 17 28 33 51 38 51 4 0 7 4 7 9 0 9 197 309 226 344 7 9 14 21 14
25 0 4 9 18 20 32 11 14 107 156 212 315 106 160 197 293 203 297 6 5 6 8 0 8
-6 0 -6 3 1 8 6 4 28 34 49 67 21 33 52 77 68 98 16 20 25 37 20 37 -4 0 -3 4
2 8 6 4 33 41 60 82 28 41 53 77 58 78 4 2 7 7 7 12 0 10 82 134 92 138 4 2 8
8 8 14 0 6 11 26 25 44 14 18 25 37 25 43 0 6 4 11 10 11 5 0 17 16 26 35 9
19 21 35 26 35 5 0 6 5 3 10 -3 6 -2 10 2 10 5 0 14 9 21 20 12 20 8 20 -2545
22 -2546 3 -2557 3 -2578 -17z"/>
<path d="M7963 7672 c-13 -2 -23 -9 -23 -17 0 -7 -3 -15 -7 -17 -12 -5 -53
-66 -53 -78 0 -5 -4 -10 -8 -10 -5 0 -15 -12 -23 -27 -8 -16 -16 -30 -19 -33
-3 -3 -21 -30 -40 -60 -19 -30 -37 -57 -40 -60 -3 -3 -21 -30 -40 -60 -19 -30
-43 -67 -54 -82 -35 -45 -61 -83 -61 -88 0 -3 -16 -27 -35 -55 -19 -27 -39
-57 -45 -66 -28 -46 -91 -134 -97 -137 -5 -2 -8 -10 -8 -17 0 -8 -6 -20 -12
-27 -7 -7 -40 -54 -73 -103 -33 -50 -63 -91 -67 -93 -5 -2 -8 -10 -8 -17 0 -8
-6 -20 -12 -27 -22 -23 -98 -138 -98 -148 0 -6 -4 -10 -10 -10 -5 0 -10 -6
-10 -14 0 -8 -3 -16 -7 -18 -5 -1 -30 -37 -57 -78 -28 -41 -52 -77 -56 -80 -3
-3 -21 -31 -40 -62 -19 -32 -38 -58 -42 -58 -4 0 -8 -5 -8 -11 0 -10 -56 -98
-70 -109 -3 -3 -21 -31 -40 -62 -19 -32 -38 -58 -42 -58 -4 0 -8 -4 -8 -10 0
-5 -47 -79 -105 -164 -58 -86 -105 -160 -105 -165 0 -5 -3 -11 -8 -13 -10 -4
-152 -216 -152 -227 0 -5 -3 -11 -7 -13 -5 -1 -35 -43 -68 -93 -33 -49 -63
-91 -67 -93 -5 -2 -8 -10 -8 -18 0 -8 -4 -14 -10 -14 -5 0 -10 -6 -10 -14 0
-8 -6 -21 -13 -28 -16 -16 -417 -616 -417 -624 0 -2 -9 -14 -20 -26 -11 -12
-20 -28 -20 -35 0 -7 -3 -13 -7 -13 -5 0 -21 -21 -38 -48 -16 -26 -36 -54 -45
-64 -14 -15 -74 -16 -690 -17 -371 0 -688 0 -703 0 -20 -1 -30 -7 -34 -21 -3
-11 -9 -20 -14 -20 -5 0 -9 -7 -9 -15 0 -8 -4 -15 -9 -15 -5 0 -14 -13 -21
-30 -7 -16 -17 -30 -22 -30 -5 0 -7 -4 -4 -9 4 -5 2 -11 -3 -13 -5 -1 -111
-156 -235 -343 -124 -187 -230 -345 -234 -351 -5 -5 -15 -21 -22 -35 -7 -13
-16 -26 -19 -29 -8 -6 -124 -181 -130 -194 -2 -6 -8 -15 -13 -21 -23 -26 -128
-187 -128 -195 0 -4 -3 -10 -7 -12 -11 -5 -73 -97 -73 -108 0 -6 -3 -10 -8
-10 -4 0 -16 -16 -26 -35 -11 -19 -23 -35 -28 -35 -4 0 -8 -4 -8 -9 0 -12
-403 -619 -427 -643 -16 -17 -5 -18 225 -18 133 0 1324 0 2647 0 1323 0 2425
0 2449 0 42 0 47 3 75 46 17 25 31 49 31 54 0 4 3 10 8 12 4 2 34 44 67 93 33
50 63 92 67 93 5 2 8 10 8 17 0 8 10 25 23 39 12 14 40 55 62 91 22 35 44 65
48 65 5 0 6 4 3 9 -3 4 3 16 14 26 11 10 20 24 20 32 0 7 7 16 15 19 8 4 15
10 15 15 0 8 97 157 110 169 3 3 11 17 17 33 7 15 17 27 23 27 5 0 10 4 10 10
0 5 65 107 145 226 80 118 145 218 145 221 0 2 6 11 13 18 28 33 37 45 32 45
-3 0 3 10 15 22 11 12 20 27 20 33 0 6 8 18 18 27 9 8 35 46 57 82 22 37 50
79 62 94 13 15 23 33 23 40 0 7 7 15 15 18 8 4 15 10 15 16 0 5 11 24 25 42
14 18 25 36 25 40 0 4 6 14 13 21 30 34 35 43 30 49 -4 3 -2 6 4 6 6 0 18 16
27 35 9 19 21 35 26 35 6 0 10 4 10 9 0 9 79 134 110 171 11 14 20 30 20 35 0
6 9 18 20 28 11 9 20 23 20 31 0 8 7 16 15 20 8 3 15 10 15 15 0 10 193 305
230 351 11 14 20 30 20 37 0 6 4 13 8 15 9 4 92 127 92 137 0 3 11 18 25 33
14 15 25 29 25 32 0 3 20 34 45 70 25 37 45 70 45 75 0 5 3 11 8 13 4 2 66 91
137 198 71 107 134 198 140 202 6 5 6 8 0 8 -7 0 -7 3 0 8 15 11 55 70 55 81
0 5 3 11 8 13 4 2 66 91 137 198 71 107 134 198 140 202 5 4 6 8 2 8 -5 0 4
17 20 38 16 20 69 98 118 172 49 74 95 141 102 148 7 8 11 17 8 22 -3 4 2 10
10 14 8 3 15 12 15 20 0 8 3 16 8 18 4 2 29 37 57 78 27 41 55 81 62 88 7 8
11 17 8 22 -3 4 2 10 10 14 8 3 15 12 15 20 0 8 3 16 8 18 4 2 71 100 150 218
78 118 145 220 150 225 4 6 34 51 67 100 32 50 62 92 67 93 4 2 8 7 8 12 0 4
61 99 135 210 74 111 135 205 135 209 0 6 -3904 9 -3947 3z"/>
</g>
</svg>
