<svg width="20.000000" height="20.000000" viewBox="0 0 20 20" fill="none" xmlns="http://www.w3.org/2000/svg" xmlns:xlink="http://www.w3.org/1999/xlink">
	<desc>
			Created with Pixso.
	</desc>
	<defs>
		<clipPath id="clip52_1637">
			<rect id="Message" width="20.000000" height="20.000000" fill="white" fill-opacity="0"/>
		</clipPath>
	</defs>
	<rect id="Message" width="20.000000" height="20.000000" fill="#000000" fill-opacity="0"/>
	<g clip-path="url(#clip52_1637)">
		<path id="Combined-Shape" d="M13.88 1.66C16.65 1.66 18.74 3.93 18.74 6.93L18.74 12.65C18.74 14.19 18.2 15.58 17.21 16.56C16.33 17.45 15.18 17.91 13.89 17.91L5.68 17.91C4.39 17.91 3.25 17.45 2.36 16.56C1.37 15.58 0.83 14.19 0.83 12.65L0.83 6.93C0.83 3.93 2.92 1.66 5.7 1.66L13.88 1.66ZM13.88 2.91L5.7 2.91C3.6 2.91 2.08 4.6 2.08 6.93L2.08 12.65C2.08 13.86 2.49 14.93 3.24 15.68C3.89 16.32 4.73 16.66 5.68 16.66L13.88 16.66C13.88 16.66 13.89 16.66 13.89 16.66C14.84 16.66 15.68 16.32 16.33 15.68C17.08 14.93 17.49 13.86 17.49 12.65L17.49 6.93C17.49 4.6 15.97 2.91 13.88 2.91ZM15.19 6.77C15.41 7.04 15.37 7.43 15.1 7.65L11.4 10.66C10.93 11.03 10.37 11.22 9.81 11.22C9.25 11.22 8.7 11.03 8.23 10.66L4.49 7.65C4.22 7.43 4.18 7.04 4.4 6.77C4.62 6.5 5.01 6.46 5.28 6.68L9.01 9.69C9.48 10.06 10.14 10.06 10.61 9.68L14.31 6.68C14.58 6.46 14.97 6.5 15.19 6.77Z" fill="#B0B0B2" fill-opacity="1.000000" fill-rule="evenodd"/>
	</g>
</svg>
