<svg width="47.703735" height="7.000000" viewBox="0 0 47.7037 7" fill="none" xmlns="http://www.w3.org/2000/svg" xmlns:xlink="http://www.w3.org/1999/xlink">
	<desc>
			Created with Pixso.
	</desc>
	<defs>
		<linearGradient id="paint_linear_10_222_0" x1="0.046265" y1="3.484131" x2="47.685879" y2="3.484131" gradientUnits="userSpaceOnUse">
			<stop stop-color="#0CBAF1"/>
			<stop offset="1.000000" stop-color="#E95CE9"/>
		</linearGradient>
	</defs>
	<mask id="mask10_211" mask-type="alpha" maskUnits="userSpaceOnUse" x="0.000000" y="0.000000" width="47.703735" height="7.000000">
		<path id="Vector" d="M0 0L47.7037 0L47.7037 7L0 7L0 0Z" fill="#000000" fill-opacity="1.000000" fill-rule="nonzero"/>
	</mask>
	<g mask="url(#mask10_211)">
		<mask id="mask10_215" mask-type="alpha" maskUnits="userSpaceOnUse" x="-0.297485" y="-0.847656" width="48.297974" height="8.193359">
			<path id="Vector" d="M-0.297485 3.80078L47.5859 -0.847656L48.0005 2.69727L0.117065 7.3457L-0.297485 3.80078Z" fill="#000000" fill-opacity="1.000000" fill-rule="nonzero"/>
		</mask>
		<g mask="url(#mask10_215)">
			<mask id="mask10_219" mask-type="alpha" maskUnits="userSpaceOnUse" x="-0.297485" y="-0.847656" width="48.297974" height="8.193359">
				<path id="Vector" d="M-0.297485 3.80078L47.5859 -0.847656L48.0005 2.69727L0.117065 7.3457L-0.297485 3.80078Z" fill="#000000" fill-opacity="1.000000" fill-rule="nonzero"/>
			</mask>
			<g mask="url(#mask10_219)">
				<path id="Vector" d="M43.5175 1.85938C43.0081 1.88379 42.4987 1.90723 41.9896 1.93359C40.8304 1.99414 39.6705 2.04492 38.5128 2.12207C37.6445 2.17969 36.7814 2.28613 35.92 2.40039C35.6907 2.43164 35.454 2.41602 35.2261 2.45215C33.0719 2.78516 30.8868 2.8877 28.7263 3.1748C27.7494 3.30566 26.7648 3.38184 25.7919 3.53711C23.6292 3.88184 21.4423 4.08691 19.274 4.4043C17.8289 4.61523 16.3833 4.82617 14.9374 5.03516C13.4681 5.24707 11.9982 5.45312 10.5293 5.66602C9.34778 5.83887 8.16675 6.0127 6.98804 6.19824C6.40344 6.29004 5.8114 6.30762 5.22388 6.36914C4.15027 6.48047 3.08411 6.64551 2.00671 6.73047C1.84558 6.75781 1.68774 6.74609 1.53296 6.69824C1.36511 6.63477 1.1665 6.70117 0.981323 6.70801L0.0462646 6.74023C0.269287 6.64648 0.503784 6.60059 0.74939 6.60059C0.970581 6.57324 1.13171 6.52539 1.13611 6.28906C1.13647 6.26465 1.17212 6.24023 1.21802 6.18262L0.0788574 6.29297C0.255615 6.15234 0.305908 6.13867 0.840942 6.08789C1.09692 6.08008 1.34839 6.04297 1.59485 5.97949C1.84302 5.89844 2.04529 5.72754 2.33533 5.69336C2.23792 5.62012 2.15234 5.65332 2.02527 5.62891C2.4032 5.55859 2.73511 5.49707 3.06702 5.43555C3.12183 5.4248 3.18335 5.42969 3.21777 5.375C3.26562 5.29883 3.01807 5.16602 3.28931 5.12305C3.40637 5.10547 3.41003 4.92285 3.54858 4.88184C3.61975 4.86133 3.6731 4.80762 3.64014 4.7373C3.60376 4.65723 3.51855 4.69727 3.45642 4.7041C3.00769 4.75586 2.55945 4.81152 2.11084 4.86621C1.94409 4.90137 1.78223 4.8877 1.62598 4.82422C1.78516 4.79785 1.94482 4.77344 2.10376 4.74512C2.27576 4.71387 2.44421 4.67676 2.61584 4.64746C3.42786 4.51465 4.2395 4.37988 5.05273 4.25293C6.40527 4.04004 7.75854 3.83594 9.10889 3.62598C10.1166 3.46875 11.1205 3.29297 12.1311 3.1543C12.8535 3.05469 13.5737 2.93652 14.2942 2.82715C15.037 2.71484 15.7791 2.58594 16.5229 2.47852C17.2898 2.36719 18.0577 2.25 18.8265 2.14355C19.6174 2.0332 20.4094 1.93359 21.1997 1.82031C22.5889 1.62207 23.9856 1.48438 25.38 1.33203C26.9374 1.16309 28.4971 1.00879 30.0574 0.862305C31.3174 0.743164 32.5796 0.643555 33.8406 0.538086C34.6952 0.466797 35.5529 0.416016 36.4087 0.379883C38.0787 0.307617 39.7465 0.199219 41.4176 0.141602C43.3103 0.0771484 45.2037 0.0576172 47.0968 0.00976562C47.2958 0.00390625 47.4922 0.0224609 47.6859 0.0644531C47.4003 0.0927734 47.115 0.135742 46.8282 0.145508C46.2251 0.165039 45.6179 0.130859 45.0182 0.186523C44.2306 0.258789 43.4381 0.177734 42.6558 0.275391C42.219 0.331055 41.7795 0.359375 41.3384 0.361328C41.3154 0.361328 41.2847 0.357422 41.2706 0.368164C40.9406 0.638672 40.5215 0.494141 40.1492 0.56543C39.7188 0.649414 39.2838 0.707031 38.8448 0.738281C37.433 0.834961 36.0215 0.936523 34.6112 1.05371C32.91 1.19629 31.2078 1.33105 29.5135 1.5332C29.4158 1.54492 29.3009 1.52637 29.2128 1.63086C29.3135 1.70898 29.431 1.67578 29.5321 1.66895C30.8013 1.59277 32.0702 1.5127 33.339 1.42969C33.6746 1.4082 34.0117 1.39355 34.3452 1.35547C34.7734 1.3252 35.1998 1.33594 35.6255 1.38867C35.7407 1.39941 35.8567 1.40234 35.9727 1.39453C37.5586 1.27344 39.1508 1.23242 40.7383 1.13672C41.0961 1.09375 41.4551 1.08496 41.8152 1.1084C42.1968 1.1582 42.5935 1.10938 42.9655 1.28418C43.2285 1.39062 43.5018 1.42285 43.786 1.38184C43.9213 1.36328 44.0546 1.37109 44.1858 1.40625C44.058 1.4834 43.9178 1.51465 43.7656 1.50195C43.6957 1.49707 43.6282 1.50684 43.5626 1.53027C43.3234 1.59277 43.3167 1.625 43.4952 1.7998C43.5089 1.81348 43.5078 1.83887 43.5142 1.8584L43.5175 1.85938ZM16.3911 5.15918C16.2888 5.10938 16.1799 5.07812 16.0643 5.06738C15.9487 5.05664 15.8353 5.06641 15.7239 5.0957C15.453 5.1543 15.1801 5.2002 14.9041 5.23145C13.8771 5.34375 12.861 5.51855 11.8392 5.66211C9.1637 6.03711 6.49158 6.43359 3.80652 6.75C3.74231 6.75781 3.66235 6.74414 3.63159 6.80469C3.6405 6.83203 3.65454 6.85547 3.67346 6.87793C3.69275 6.89941 3.71533 6.91699 3.74194 6.93066C3.76868 6.94434 3.79688 6.95312 3.82715 6.95703C3.85754 6.96094 3.88757 6.95996 3.91724 6.95312C4.29541 6.89844 4.67896 6.87207 5.05823 6.82129C7.19434 6.53711 9.3186 6.17969 11.4628 5.94531C11.5662 5.93359 11.6677 5.90723 11.7706 5.89355C12.5717 5.79004 13.3593 5.61816 14.1609 5.51758C14.8163 5.43457 15.4686 5.33301 16.1217 5.23535C16.2177 5.23242 16.304 5.2041 16.3804 5.15137L16.3911 5.15918ZM14.7225 5.34766C14.6899 5.37305 14.6525 5.3877 14.6099 5.39258C14.5676 5.39648 14.5272 5.38965 14.4895 5.37109C14.5636 5.33496 14.6414 5.32715 14.7225 5.34766ZM16.3804 5.15137C16.4581 5.17773 16.5374 5.18066 16.6178 5.16113C17.1309 5.08301 17.6447 5.00586 18.1593 4.93652C19.3859 4.77148 20.6129 4.60938 21.8402 4.44922C22.1599 4.40723 22.48 4.36523 22.8086 4.32227C22.7141 4.28125 22.6149 4.25977 22.51 4.25879C22.4055 4.25684 22.3055 4.27637 22.21 4.31445C21.9717 4.40137 21.6857 4.37598 21.4216 4.41016C21.0522 4.43359 20.6869 4.4834 20.3262 4.55859C20.0475 4.63965 19.7645 4.65723 19.4767 4.61133L20.0094 4.53027C19.4092 4.57227 18.8131 4.64355 18.2216 4.74414C17.7111 4.80469 17.202 4.88867 16.6908 4.95215C16.5985 4.96289 16.5085 4.98145 16.4207 5.00781C16.3314 5.03711 16.3403 5.09863 16.3899 5.15918L16.3804 5.15137ZM17.8096 4.86914C18.0273 4.79395 18.2527 4.7666 18.4845 4.78906C18.2649 4.85156 18.04 4.87891 17.8099 4.86914L17.8096 4.86914ZM35.3154 2.78223L37.6407 2.55664L37.6385 2.53613L35.322 2.76074L35.3154 2.78223ZM44.5889 1.74902C44.6311 1.83984 44.7189 1.82617 44.797 1.81641C45.0164 1.80664 45.233 1.7793 45.4464 1.73242L44.5876 1.74902L44.5889 1.74902ZM22.0303 4.25391L21.2531 4.3291L21.2563 4.35742L22.0336 4.28125L22.0303 4.25391ZM44.5876 1.74902C44.2288 1.78223 43.8597 1.72754 43.5142 1.85938C43.516 1.85938 43.5175 1.8584 43.5189 1.8584C43.8816 1.86816 44.2384 1.83203 44.5896 1.74902L44.5876 1.74902ZM33.8291 2.9209L34.2966 2.87598L34.2944 2.86035L33.8202 2.90625L33.8291 2.9209ZM29.6947 3.31836L29.2242 3.36426L29.2264 3.38379L29.6936 3.33789L29.6947 3.31836ZM24.8413 3.9043C24.6487 3.93262 24.5087 3.89453 24.3849 3.9707C24.5453 3.99707 24.6976 3.97559 24.8413 3.9043ZM30.12 3.29004L30.5234 3.25098C30.3856 3.23438 30.2512 3.24707 30.12 3.29004ZM24.625 4.08008L25.0166 4.04199C24.8861 4.0293 24.7457 3.95215 24.625 4.08008ZM31.9583 3.08203C31.8223 3.08105 31.6945 3.10938 31.5748 3.16699C31.7319 3.13281 31.8323 3.15723 31.9583 3.08203ZM34.6626 2.8457C34.7438 2.85645 34.8208 2.84473 34.8938 2.81055C34.813 2.81348 34.7312 2.79395 34.6633 2.8457L34.6626 2.8457ZM23.6792 4.05957C23.7155 4.05566 23.7155 4.03516 23.6674 4.01758L23.3317 4.07227C23.4973 4.06641 23.5887 4.06738 23.6792 4.05957ZM23.5284 4.18945C23.6584 4.20215 23.7833 4.18262 23.9022 4.13281C23.748 4.14746 23.6559 4.09473 23.5284 4.18945ZM28.005 3.54785C27.9413 3.5332 27.881 3.54004 27.8235 3.56934C27.8884 3.57324 27.9487 3.58789 28.005 3.54785ZM26.0786 3.74805L26.2446 3.73145L26.079 3.72559L26.0786 3.74805ZM31.1552 3.18262C31.1807 3.19238 31.2078 3.19531 31.2355 3.19238C31.2633 3.18945 31.2881 3.17969 31.3103 3.16309C31.2526 3.15625 31.1967 3.1377 31.1544 3.18262L31.1552 3.18262ZM28.8945 3.40137C28.8723 3.39941 28.8505 3.39941 28.8282 3.40137C28.8126 3.4043 28.7979 3.41113 28.7842 3.41895L28.8512 3.42285C28.8656 3.41602 28.8798 3.4082 28.8942 3.40137L28.8945 3.40137Z" fill="url(#paint_linear_10_222_0)" fill-opacity="1.000000" fill-rule="nonzero"/>
			</g>
		</g>
	</g>
</svg>
