<svg width="48.000000" height="48.000000" viewBox="0 0 48 48" fill="none" xmlns="http://www.w3.org/2000/svg" xmlns:xlink="http://www.w3.org/1999/xlink">
	<desc>
			Created with Pixso.
	</desc>
	<defs>
		<clipPath id="clip84_3487">
			<rect id="design" width="48.000000" height="48.000000" fill="white" fill-opacity="0"/>
		</clipPath>
		<linearGradient id="paint_linear_84_3495_0" x1="9.092529" y1="22.750782" x2="38.907623" y2="22.750782" gradientUnits="userSpaceOnUse">
			<stop stop-color="#0CBAF1"/>
			<stop offset="1.000000" stop-color="#E95CE9"/>
		</linearGradient>
		<linearGradient id="paint_linear_84_3497_0" x1="18.284912" y1="43.825455" x2="29.722246" y2="43.825455" gradientUnits="userSpaceOnUse">
			<stop stop-color="#0CBAF1"/>
			<stop offset="1.000000" stop-color="#E95CE9"/>
		</linearGradient>
		<linearGradient id="paint_linear_84_3499_0" x1="18.130493" y1="17.798840" x2="29.869637" y2="17.798840" gradientUnits="userSpaceOnUse">
			<stop stop-color="#0CBAF1"/>
			<stop offset="1.000000" stop-color="#E95CE9"/>
		</linearGradient>
		<linearGradient id="paint_linear_84_3500_0" x1="20.195190" y1="25.150930" x2="27.804876" y2="25.150930" gradientUnits="userSpaceOnUse">
			<stop stop-color="#0CBAF1"/>
			<stop offset="1.000000" stop-color="#E95CE9"/>
		</linearGradient>
		<linearGradient id="paint_linear_84_3502_0" x1="19.431641" y1="33.462845" x2="28.568420" y2="33.462845" gradientUnits="userSpaceOnUse">
			<stop stop-color="#0CBAF1"/>
			<stop offset="1.000000" stop-color="#E95CE9"/>
		</linearGradient>
		<linearGradient id="paint_linear_84_3504_0" x1="23.296875" y1="15.706469" x2="24.703125" y2="15.706469" gradientUnits="userSpaceOnUse">
			<stop stop-color="#0CBAF1"/>
			<stop offset="1.000000" stop-color="#E95CE9"/>
		</linearGradient>
		<linearGradient id="paint_linear_84_3506_0" x1="19.432129" y1="29.828125" x2="28.567972" y2="29.828125" gradientUnits="userSpaceOnUse">
			<stop stop-color="#0CBAF1"/>
			<stop offset="1.000000" stop-color="#E95CE9"/>
		</linearGradient>
		<linearGradient id="paint_linear_84_3508_0" x1="23.290527" y1="1.353750" x2="24.696777" y2="1.353750" gradientUnits="userSpaceOnUse">
			<stop stop-color="#0CBAF1"/>
			<stop offset="1.000000" stop-color="#E95CE9"/>
		</linearGradient>
		<linearGradient id="paint_linear_84_3510_0" x1="40.506470" y1="19.765625" x2="43.172531" y2="19.765625" gradientUnits="userSpaceOnUse">
			<stop stop-color="#0CBAF1"/>
			<stop offset="1.000000" stop-color="#E95CE9"/>
		</linearGradient>
		<linearGradient id="paint_linear_84_3512_0" x1="4.827393" y1="19.765625" x2="7.493455" y2="19.765625" gradientUnits="userSpaceOnUse">
			<stop stop-color="#0CBAF1"/>
			<stop offset="1.000000" stop-color="#E95CE9"/>
		</linearGradient>
		<linearGradient id="paint_linear_84_3514_0" x1="35.465820" y1="6.746305" x2="37.762978" y2="6.746305" gradientUnits="userSpaceOnUse">
			<stop stop-color="#0CBAF1"/>
			<stop offset="1.000000" stop-color="#E95CE9"/>
		</linearGradient>
		<linearGradient id="paint_linear_84_3516_0" x1="10.236938" y1="32.784389" x2="12.534096" y2="32.784389" gradientUnits="userSpaceOnUse">
			<stop stop-color="#0CBAF1"/>
			<stop offset="1.000000" stop-color="#E95CE9"/>
		</linearGradient>
		<linearGradient id="paint_linear_84_3518_0" x1="35.465820" y1="32.784389" x2="37.762978" y2="32.784389" gradientUnits="userSpaceOnUse">
			<stop stop-color="#0CBAF1"/>
			<stop offset="1.000000" stop-color="#E95CE9"/>
		</linearGradient>
		<linearGradient id="paint_linear_84_3520_0" x1="10.236938" y1="6.746305" x2="12.534096" y2="6.746305" gradientUnits="userSpaceOnUse">
			<stop stop-color="#0CBAF1"/>
			<stop offset="1.000000" stop-color="#E95CE9"/>
		</linearGradient>
		<linearGradient id="paint_linear_84_3522_0" x1="18.285034" y1="43.591797" x2="26.991783" y2="43.591797" gradientUnits="userSpaceOnUse">
			<stop stop-color="#0CBAF1"/>
			<stop offset="1.000000" stop-color="#E95CE9"/>
		</linearGradient>
	</defs>
	<rect id="design" width="48.000000" height="48.000000" fill="#FFFFFF" fill-opacity="0"/>
	<g clip-path="url(#clip84_3487)">
		<mask id="mask84_3491" mask-type="alpha" maskUnits="userSpaceOnUse" x="0.000000" y="0.000000" width="48.000000" height="48.000000">
			<path id="path4155" d="M0 0L48 0L48 48L0 48L0 0Z" fill="#000000" fill-opacity="1.000000" fill-rule="nonzero"/>
		</mask>
		<g mask="url(#mask84_3491)">
			<path id="path4161 (Stroke)" d="M18.9622 39.6504C17.9333 39.6504 17.099 38.8174 17.0977 37.7891L17.0977 37.7861L17.088 36.0898C17.088 36.0889 17.088 36.0879 17.088 36.0879C17.0837 33.3193 16.0654 30.6221 14.1583 28.5928L14.1582 28.5928C11.9136 26.2041 10.5299 22.999 10.4993 19.4707C10.4354 12.0801 16.418 5.95508 23.8075 5.85254C27.746 5.79785 31.3029 7.42773 33.8053 10.0713C34.0723 10.3525 34.5173 10.3652 34.7993 10.0977C35.0813 9.83105 35.0934 9.38574 34.8264 9.10352C32.0651 6.1875 28.1357 4.38574 23.7878 4.44629C15.6239 4.56055 9.02258 11.3193 9.09314 19.4824C9.12683 23.3789 10.6561 26.9189 13.1334 29.5557C14.785 31.3135 15.6783 33.6621 15.6818 36.0918L15.6819 36.0947L15.6914 37.791C15.6914 37.791 15.6914 37.792 15.6914 37.793C15.6948 39.5967 17.1583 41.0566 18.9623 41.0566L29.0619 41.0557C30.8699 41.0557 32.3348 39.5889 32.3323 37.7803L32.3323 37.7773L32.3226 36.0156C32.3226 36.0156 32.3226 36.0146 32.3226 36.0146C32.3196 33.6279 33.1964 31.3193 34.8247 29.5996L34.3497 29.1504L34.8247 29.5996C37.3546 26.9297 38.9076 23.3213 38.9076 19.3516C38.9076 16.4697 38.089 13.7773 36.6716 11.4961C36.4668 11.166 36.0332 11.0645 35.7034 11.2695C35.3735 11.4746 35.2722 11.9082 35.4772 12.2373C36.7601 14.3027 37.5013 16.7393 37.5013 19.3516C37.5013 22.9473 36.0962 26.2129 33.8038 28.6328C31.9148 30.627 30.9124 33.2891 30.9164 36.0176L30.9164 36.0205L30.926 37.7822C30.926 37.7832 30.926 37.7832 30.926 37.7842C30.9269 38.8135 30.092 39.6494 29.0618 39.6494L18.9622 39.6504Z" fill="url(#paint_linear_84_3495_0)" fill-opacity="1.000000" fill-rule="evenodd"/>
			<path id="path4165 (Stroke)" d="M21.4218 48C19.6841 48 18.2775 46.5879 18.2849 44.8496L21.4218 48ZM21.4218 48L26.5663 47.999C28.293 47.999 29.6951 46.6035 29.7025 44.877L29.7223 40.3574C29.723 40.1699 29.6493 39.9902 29.5173 39.8574C29.3854 39.7256 29.2061 39.6514 29.019 39.6514L19.0077 39.6523C18.6206 39.6523 18.3063 39.9648 18.3047 40.3516L18.2849 44.8496L21.4218 48ZM19.6912 44.8564L19.7078 41.0586L28.313 41.0576L28.2963 44.8711C28.2922 45.8232 27.5188 46.5928 26.5662 46.5928L21.4216 46.5938C20.4631 46.5938 19.687 45.8145 19.6912 44.8564Z" fill="url(#paint_linear_84_3497_0)" fill-opacity="1.000000" fill-rule="evenodd"/>
			<path id="path4169 (Stroke)" d="M20.1929 23.7725C20.2152 24.1436 20.5228 24.4336 20.8947 24.4336L27.0981 24.4336C27.4486 24.4336 27.7455 24.1758 27.7944 23.8281C27.8678 23.3076 28.0249 22.5986 28.3806 21.8193L28.3806 21.8193C28.7538 21.002 29.2164 20.3896 29.5945 19.9697L29.5947 19.9697C29.8944 19.6357 29.9574 19.1484 29.7426 18.748L20.1929 23.7725ZM21.1061 21.4814C21.3302 22.0449 21.4562 22.5723 21.5261 23.0273L21.1061 21.4814ZM21.5261 23.0273L26.509 23.0273C26.6206 22.5049 26.802 21.8906 27.1013 21.2354C27.4963 20.3701 27.9752 19.6982 28.3926 19.208C27.8413 18.1934 27.2068 17.1221 26.4763 16.0166L26.4763 16.0166C25.6459 14.7598 24.806 13.6309 23.9918 12.626C23.1593 13.6387 22.2966 14.7881 21.4474 16.083C20.7444 17.1543 20.1378 18.1914 19.6143 19.1719C20.0958 19.6738 20.6892 20.4346 21.1061 21.4814L21.5261 23.0273ZM19.4983 19.3906C19.4983 19.3906 19.4983 19.3906 19.4983 19.3906ZM28.549 19.0293C28.549 19.0293 28.5488 19.0293 28.5487 19.0293C28.5488 19.0293 28.549 19.0293 28.549 19.0293ZM28.5035 19.4131C28.5035 19.4131 28.5035 19.4131 28.5035 19.4131ZM20.1929 23.7725C20.1655 23.3193 20.0748 22.6934 19.7994 22.002L20.1929 23.7725ZM19.7994 22.002L19.7994 22.002ZM19.7994 22.002C19.4226 21.0547 18.8638 20.3975 18.4535 19.999L19.7994 22.002ZM18.4532 19.999C18.1085 19.665 18.0365 19.1494 18.2537 18.7363L18.4532 19.999ZM29.7426 18.748C29.1472 17.6387 28.4548 16.4609 27.6497 15.2412C26.7662 13.9043 25.8724 12.708 25.0081 11.6465L29.7426 18.748ZM18.2538 18.7363C18.8225 17.6553 19.4895 16.5039 20.2716 15.3115L18.2538 18.7363ZM22.9832 11.6387C22.0975 12.709 21.1772 13.9307 20.2716 15.3115L20.2716 15.3115L22.9832 11.6387ZM25.0081 11.6465C24.4863 11.0059 23.5098 11.0029 22.9833 11.6387L22.9832 11.6387L25.0081 11.6465Z" fill="url(#paint_linear_84_3499_0)" fill-opacity="1.000000" fill-rule="evenodd"/>
			<path id="path4171 (Stroke)" d="M20.1952 26.5713C20.1952 26.96 20.51 27.2744 20.8983 27.2744L27.1018 27.2744C27.4901 27.2744 27.8049 26.96 27.8049 26.5713L27.8049 23.7305C27.8049 23.3418 27.4901 23.0273 27.1018 23.0273L20.8983 23.0273C20.51 23.0273 20.1952 23.3418 20.1952 23.7305L20.1952 26.5713ZM21.6014 25.8682L21.6014 24.4336L26.3987 24.4336L26.3987 25.8682L21.6014 25.8682Z" fill="url(#paint_linear_84_3500_0)" fill-opacity="1.000000" fill-rule="evenodd"/>
			<path id="path4175 (Stroke)" d="M27.8654 41.0566C28.2537 41.0566 28.5685 40.7422 28.5685 40.3535L28.5685 27.3252C28.5685 26.5195 27.9146 25.8691 27.1113 25.8691L20.8887 25.8691C20.0856 25.8691 19.4316 26.5195 19.4316 27.3252L19.4316 37.3164C19.4316 37.7051 19.7465 38.0195 20.1348 38.0195C20.5231 38.0195 20.8379 37.7051 20.8379 37.3164L20.8379 27.3252C20.8379 27.2988 20.8597 27.2754 20.8887 27.2754L27.1113 27.2754C27.1404 27.2754 27.1622 27.2988 27.1622 27.3252L27.1622 40.3535C27.1622 40.7422 27.4769 41.0566 27.8654 41.0566Z" fill="url(#paint_linear_84_3502_0)" fill-opacity="1.000000" fill-rule="evenodd"/>
			<path id="path4179 (Stroke)" d="M24 20.248C24.3883 20.248 24.7031 19.9336 24.7031 19.5449L24.7031 11.8682C24.7031 11.4795 24.3883 11.165 24 11.165C23.6117 11.165 23.2969 11.4795 23.2969 11.8682L23.2969 19.5449C23.2969 19.9336 23.6117 20.248 24 20.248Z" fill="url(#paint_linear_84_3504_0)" fill-opacity="1.000000" fill-rule="evenodd"/>
			<path id="path4183 (Stroke)" d="M19.4321 29.8281C19.4321 30.2168 19.7469 30.5312 20.1353 30.5312L27.8649 30.5312C28.2532 30.5312 28.568 30.2168 28.568 29.8281C28.568 29.4395 28.2532 29.125 27.8649 29.125L20.1353 29.125C19.7469 29.125 19.4321 29.4395 19.4321 29.8281Z" fill="url(#paint_linear_84_3506_0)" fill-opacity="1.000000" fill-rule="evenodd"/>
			<path id="path4187 (Stroke)" d="M23.9937 2.70703C24.382 2.70703 24.6968 2.39258 24.6968 2.00391L24.6968 0.703125C24.6968 0.31543 24.382 0 23.9937 0C23.6053 0 23.2905 0.31543 23.2905 0.703125L23.2905 2.00391C23.2905 2.39258 23.6053 2.70703 23.9937 2.70703Z" fill="url(#paint_linear_84_3508_0)" fill-opacity="1.000000" fill-rule="evenodd"/>
			<path id="path4191 (Stroke)" d="M40.5065 19.7656C40.5065 20.1543 40.8213 20.4688 41.2096 20.4688L42.4694 20.4688C42.8578 20.4688 43.1725 20.1543 43.1725 19.7656C43.1725 19.377 42.8578 19.0625 42.4694 19.0625L41.2096 19.0625C40.8213 19.0625 40.5065 19.377 40.5065 19.7656Z" fill="url(#paint_linear_84_3510_0)" fill-opacity="1.000000" fill-rule="evenodd"/>
			<path id="path4195 (Stroke)" d="M4.82739 19.7656C4.82739 20.1543 5.14221 20.4688 5.53052 20.4688L6.79028 20.4688C7.17871 20.4688 7.49341 20.1543 7.49341 19.7656C7.49341 19.377 7.17871 19.0625 6.79028 19.0625L5.53052 19.0625C5.14221 19.0625 4.82739 19.377 4.82739 19.7656Z" fill="url(#paint_linear_84_3512_0)" fill-opacity="1.000000" fill-rule="evenodd"/>
			<path id="path4199 (Stroke)" d="M35.6797 7.71094C35.9586 7.98145 36.4037 7.97461 36.674 7.69531L37.5648 6.77539C37.8351 6.49707 37.828 6.05176 37.5491 5.78125C37.2703 5.51172 36.8251 5.51855 36.5549 5.79688L35.6639 6.7168C35.3938 6.99609 35.4008 7.44043 35.6797 7.71094Z" fill="url(#paint_linear_84_3514_0)" fill-opacity="1.000000" fill-rule="evenodd"/>
			<path id="path4203 (Stroke)" d="M10.4508 33.749C10.7297 34.0195 11.1748 34.0127 11.4451 33.7334L12.3359 32.8135C12.6062 32.5352 12.5991 32.0898 12.3202 31.8193C12.0414 31.5498 11.5962 31.5566 11.326 31.835L10.4351 32.7549C10.1649 33.0342 10.1719 33.4785 10.4508 33.749Z" fill="url(#paint_linear_84_3516_0)" fill-opacity="1.000000" fill-rule="evenodd"/>
			<path id="path4207 (Stroke)" d="M37.5491 33.749C37.828 33.4785 37.8351 33.0342 37.5648 32.7549L36.674 31.835C36.4037 31.5566 35.9586 31.5498 35.6797 31.8193C35.4008 32.0898 35.3938 32.5352 35.6639 32.8135L36.5549 33.7334C36.8251 34.0127 37.2703 34.0195 37.5491 33.749Z" fill="url(#paint_linear_84_3518_0)" fill-opacity="1.000000" fill-rule="evenodd"/>
			<path id="path4211 (Stroke)" d="M12.3202 7.71094C12.5991 7.44043 12.6062 6.99609 12.3359 6.7168L11.4451 5.79688C11.1748 5.51855 10.7297 5.51172 10.4508 5.78125C10.1719 6.05176 10.1649 6.49707 10.4351 6.77539L11.326 7.69531C11.5962 7.97461 12.0414 7.98145 12.3202 7.71094Z" fill="url(#paint_linear_84_3520_0)" fill-opacity="1.000000" fill-rule="evenodd"/>
			<path id="path4215 (Stroke)" d="M18.285 43.5918C18.285 43.9805 18.5999 44.2949 18.9882 44.2949L26.2887 44.2949C26.677 44.2949 26.9918 43.9805 26.9918 43.5918C26.9918 43.2031 26.677 42.8887 26.2887 42.8887L18.9882 42.8887C18.5999 42.8887 18.285 43.2031 18.285 43.5918Z" fill="url(#paint_linear_84_3522_0)" fill-opacity="1.000000" fill-rule="evenodd"/>
		</g>
	</g>
</svg>
