<svg width="48.000000" height="48.000000" viewBox="0 0 48 48" fill="none" xmlns="http://www.w3.org/2000/svg" xmlns:xlink="http://www.w3.org/1999/xlink">
	<desc>
			Created with Pixso.
	</desc>
	<defs>
		<linearGradient id="paint_linear_84_3531_0" x1="31.725830" y1="26.267141" x2="47.999985" y2="26.267141" gradientUnits="userSpaceOnUse">
			<stop stop-color="#0CBAF1"/>
			<stop offset="1.000000" stop-color="#E95CE9"/>
		</linearGradient>
		<linearGradient id="paint_linear_84_3533_0" x1="0.000000" y1="29.834335" x2="37.048496" y2="29.834335" gradientUnits="userSpaceOnUse">
			<stop stop-color="#0CBAF1"/>
			<stop offset="1.000000" stop-color="#E95CE9"/>
		</linearGradient>
		<linearGradient id="paint_linear_84_3535_0" x1="7.531067" y1="22.012695" x2="40.469006" y2="22.012695" gradientUnits="userSpaceOnUse">
			<stop stop-color="#0CBAF1"/>
			<stop offset="1.000000" stop-color="#E95CE9"/>
		</linearGradient>
		<linearGradient id="paint_linear_84_3537_0" x1="7.531067" y1="26.765625" x2="40.469006" y2="26.765625" gradientUnits="userSpaceOnUse">
			<stop stop-color="#0CBAF1"/>
			<stop offset="1.000000" stop-color="#E95CE9"/>
		</linearGradient>
		<linearGradient id="paint_linear_84_3539_0" x1="7.531067" y1="31.517578" x2="27.858784" y2="31.517578" gradientUnits="userSpaceOnUse">
			<stop stop-color="#0CBAF1"/>
			<stop offset="1.000000" stop-color="#E95CE9"/>
		</linearGradient>
		<linearGradient id="paint_linear_84_3541_0" x1="14.419556" y1="9.579798" x2="33.580368" y2="9.579798" gradientUnits="userSpaceOnUse">
			<stop stop-color="#0CBAF1"/>
			<stop offset="1.000000" stop-color="#E95CE9"/>
		</linearGradient>
		<linearGradient id="paint_linear_84_3543_0" x1="16.848267" y1="15.147423" x2="31.136452" y2="15.147423" gradientUnits="userSpaceOnUse">
			<stop stop-color="#0CBAF1"/>
			<stop offset="1.000000" stop-color="#E95CE9"/>
		</linearGradient>
		<linearGradient id="paint_linear_84_3545_0" x1="19.870789" y1="8.435422" x2="28.128851" y2="8.435422" gradientUnits="userSpaceOnUse">
			<stop stop-color="#0CBAF1"/>
			<stop offset="1.000000" stop-color="#E95CE9"/>
		</linearGradient>
	</defs>
	<mask id="mask84_3527" mask-type="alpha" maskUnits="userSpaceOnUse" x="0.000000" y="0.000000" width="48.000000" height="48.000000">
		<path id="path1950" d="M0 0L48 0L48 48L0 48L0 0Z" fill="#000000" fill-opacity="1.000000" fill-rule="nonzero"/>
	</mask>
	<g mask="url(#mask84_3527)">
		<path id="path1956 (Stroke)" d="M39.7969 40.1621C39.7969 40.5508 40.1118 40.8652 40.5001 40.8652L43.2069 40.8652C45.8563 40.8652 48 38.7109 48 36.0586L48 16.4756C48 13.8232 45.8563 11.6689 43.2069 11.6689L32.429 11.6689C32.0406 11.6689 31.7258 11.9834 31.7258 12.3721C31.7258 12.7607 32.0406 13.0752 32.429 13.0752L43.2069 13.0752C45.0753 13.0752 46.5938 14.5957 46.5938 16.4756L46.5938 36.0586C46.5938 37.9385 45.0753 39.459 43.2069 39.459L40.5001 39.459C40.1118 39.459 39.7969 39.7734 39.7969 40.1621Z" fill="url(#paint_linear_84_3531_0)" fill-opacity="1.000000" fill-rule="evenodd"/>
		<path id="path1960 (Stroke)" d="M6.56256 47.9385C6.81494 48.0518 7.11041 48.0068 7.3175 47.8232L15.1638 40.8652L36.3454 40.8652C36.7337 40.8652 37.0485 40.5498 37.0485 40.1621C37.0485 39.7734 36.7337 39.459 36.3454 39.459L14.897 39.459C14.725 39.459 14.5591 39.5215 14.4305 39.6357L7.55408 45.7334L7.55408 40.1621C7.55408 39.7734 7.23932 39.459 6.85095 39.459L4.79309 39.459C2.92487 39.459 1.40625 37.9385 1.40625 36.0586L1.40625 16.4756C1.40625 14.5947 2.92487 13.0752 4.79309 13.0752L15.3665 13.0752C15.7548 13.0752 16.0696 12.7598 16.0696 12.3721C16.0696 11.9834 15.7548 11.6689 15.3665 11.6689L4.79309 11.6689C2.14386 11.6689 0 13.8232 0 16.4756L0 36.0586C0 38.7109 2.14386 40.8652 4.79309 40.8652L6.14783 40.8652L6.14783 47.2969C6.14783 47.5732 6.31018 47.8242 6.56256 47.9385Z" fill="url(#paint_linear_84_3533_0)" fill-opacity="1.000000" fill-rule="evenodd"/>
		<path id="path1964 (Stroke)" d="M7.53107 22.0127C7.53107 22.4014 7.84589 22.7158 8.23419 22.7158L39.7659 22.7158C40.1542 22.7158 40.469 22.4014 40.469 22.0127C40.469 21.624 40.1542 21.3096 39.7659 21.3096L8.23419 21.3096C7.84589 21.3096 7.53107 21.624 7.53107 22.0127Z" fill="url(#paint_linear_84_3535_0)" fill-opacity="1.000000" fill-rule="evenodd"/>
		<path id="path1968 (Stroke)" d="M7.53107 26.7656C7.53107 27.1543 7.84589 27.4688 8.23419 27.4688L39.7659 27.4688C40.1542 27.4688 40.469 27.1543 40.469 26.7656C40.469 26.377 40.1542 26.0625 39.7659 26.0625L8.23419 26.0625C7.84589 26.0625 7.53107 26.377 7.53107 26.7656Z" fill="url(#paint_linear_84_3537_0)" fill-opacity="1.000000" fill-rule="evenodd"/>
		<path id="path1972 (Stroke)" d="M7.53107 31.5176C7.53107 31.9062 7.84589 32.2207 8.23419 32.2207L27.1556 32.2207C27.544 32.2207 27.8588 31.9062 27.8588 31.5176C27.8588 31.1289 27.544 30.8145 27.1556 30.8145L8.23419 30.8145C7.84589 30.8145 7.53107 31.1289 7.53107 31.5176Z" fill="url(#paint_linear_84_3539_0)" fill-opacity="1.000000" fill-rule="evenodd"/>
		<path id="path1976 (Stroke)" d="M14.4196 9.58008C14.4196 14.8711 18.7089 19.1602 23.9999 19.1602C29.2911 19.1602 33.5804 14.8711 33.5804 9.58008C33.5804 4.28906 29.2911 -0.000976562 23.9999 -0.000976562C22.3015 -0.000976562 20.7042 0.442383 19.3195 1.21875C18.9808 1.40918 18.8602 1.83691 19.0502 2.17578C19.2402 2.51465 19.6688 2.63574 20.0074 2.44531C21.1875 1.7832 22.5486 1.40527 23.9999 1.40527C28.5145 1.40527 32.1741 5.06543 32.1741 9.58008C32.1741 14.0947 28.5145 17.7539 23.9999 17.7539C19.4855 17.7539 15.8258 14.0947 15.8258 9.58008C15.8258 7.74121 16.432 6.0459 17.4557 4.68164C17.6887 4.37012 17.6257 3.92969 17.315 3.69727C17.0043 3.46387 16.5636 3.52637 16.3306 3.83789C15.1307 5.4375 14.4196 7.42676 14.4196 9.58008Z" fill="url(#paint_linear_84_3541_0)" fill-opacity="1.000000" fill-rule="evenodd"/>
		<path id="path1980 (Stroke)" d="M18.436 15.5645C19.6192 13.7432 21.6692 12.541 23.9998 12.541C26.2781 12.541 28.3021 13.7363 29.5409 15.5859C28.0834 16.9316 26.1385 17.7539 24 17.7539C21.8501 17.7539 19.8959 16.9229 18.436 15.5645ZM17.0406 16.1602C18.7858 18.0049 21.2576 19.1602 24 19.1602C26.7338 19.1602 29.1987 18.0127 30.9429 16.1777C31.1566 15.9531 31.1978 15.6152 31.0444 15.3457C29.6212 12.8447 27.0151 11.1348 23.9998 11.1348C20.9466 11.1348 18.2936 12.8379 16.9335 15.3418C16.7883 15.6084 16.8315 15.9395 17.0406 16.1602Z" fill="url(#paint_linear_84_3543_0)" fill-opacity="1.000000" fill-rule="evenodd"/>
		<path id="path1984 (Stroke)" d="M19.8708 8.43555C19.8708 10.7158 21.7193 12.5645 23.9998 12.5645C26.2802 12.5645 28.1288 10.7158 28.1288 8.43555C28.1288 6.15527 26.2802 4.30664 23.9998 4.30664C21.7194 4.30664 19.8708 6.15527 19.8708 8.43555ZM23.9998 11.1582C22.496 11.1582 21.277 9.93945 21.277 8.43555C21.277 6.93164 22.496 5.71289 23.9998 5.71289C25.5035 5.71289 26.7226 6.93164 26.7226 8.43555C26.7226 9.93945 25.5035 11.1582 23.9998 11.1582Z" fill="url(#paint_linear_84_3545_0)" fill-opacity="1.000000" fill-rule="evenodd"/>
	</g>
</svg>
