<svg width="48.000000" height="48.000000" viewBox="0 0 48 48" fill="none" xmlns="http://www.w3.org/2000/svg" xmlns:xlink="http://www.w3.org/1999/xlink">
	<desc>
			Created with Pixso.
	</desc>
	<defs>
		<linearGradient id="paint_linear_84_3583_0" x1="7.349854" y1="4.947391" x2="13.850290" y2="4.947391" gradientUnits="userSpaceOnUse">
			<stop stop-color="#0CBAF1"/>
			<stop offset="1.000000" stop-color="#E95CE9"/>
		</linearGradient>
		<linearGradient id="paint_linear_84_3585_0" x1="16.504517" y1="4.947391" x2="23.005047" y2="4.947391" gradientUnits="userSpaceOnUse">
			<stop stop-color="#0CBAF1"/>
			<stop offset="1.000000" stop-color="#E95CE9"/>
		</linearGradient>
		<linearGradient id="paint_linear_84_3587_0" x1="25.659302" y1="4.947391" x2="32.159832" y2="4.947391" gradientUnits="userSpaceOnUse">
			<stop stop-color="#0CBAF1"/>
			<stop offset="1.000000" stop-color="#E95CE9"/>
		</linearGradient>
		<linearGradient id="paint_linear_84_3589_0" x1="34.814087" y1="4.947391" x2="41.314617" y2="4.947391" gradientUnits="userSpaceOnUse">
			<stop stop-color="#0CBAF1"/>
			<stop offset="1.000000" stop-color="#E95CE9"/>
		</linearGradient>
		<linearGradient id="paint_linear_84_3591_0" x1="13.910889" y1="30.907873" x2="32.143906" y2="30.907873" gradientUnits="userSpaceOnUse">
			<stop stop-color="#0CBAF1"/>
			<stop offset="1.000000" stop-color="#E95CE9"/>
		</linearGradient>
		<linearGradient id="paint_linear_84_3593_0" x1="26.344971" y1="23.549225" x2="30.371490" y2="23.549225" gradientUnits="userSpaceOnUse">
			<stop stop-color="#0CBAF1"/>
			<stop offset="1.000000" stop-color="#E95CE9"/>
		</linearGradient>
		<linearGradient id="paint_linear_84_3595_0" x1="21.314453" y1="24.206610" x2="25.529701" y2="24.206610" gradientUnits="userSpaceOnUse">
			<stop stop-color="#0CBAF1"/>
			<stop offset="1.000000" stop-color="#E95CE9"/>
		</linearGradient>
		<linearGradient id="paint_linear_84_3597_0" x1="26.472412" y1="28.511148" x2="31.104849" y2="28.511148" gradientUnits="userSpaceOnUse">
			<stop stop-color="#0CBAF1"/>
			<stop offset="1.000000" stop-color="#E95CE9"/>
		</linearGradient>
		<linearGradient id="paint_linear_84_3599_0" x1="29.717163" y1="30.980074" x2="37.259422" y2="30.980074" gradientUnits="userSpaceOnUse">
			<stop stop-color="#0CBAF1"/>
			<stop offset="1.000000" stop-color="#E95CE9"/>
		</linearGradient>
		<linearGradient id="paint_linear_84_3601_0" x1="19.044922" y1="21.572718" x2="21.222839" y2="21.572718" gradientUnits="userSpaceOnUse">
			<stop stop-color="#0CBAF1"/>
			<stop offset="1.000000" stop-color="#E95CE9"/>
		</linearGradient>
		<linearGradient id="paint_linear_84_3603_0" x1="9.088745" y1="36.247356" x2="30.849728" y2="36.247356" gradientUnits="userSpaceOnUse">
			<stop stop-color="#0CBAF1"/>
			<stop offset="1.000000" stop-color="#E95CE9"/>
		</linearGradient>
		<linearGradient id="paint_linear_84_3605_0" x1="13.371460" y1="36.361664" x2="22.500134" y2="36.361664" gradientUnits="userSpaceOnUse">
			<stop stop-color="#0CBAF1"/>
			<stop offset="1.000000" stop-color="#E95CE9"/>
		</linearGradient>
		<linearGradient id="paint_linear_84_3607_0" x1="11.782227" y1="40.252068" x2="18.327902" y2="40.252068" gradientUnits="userSpaceOnUse">
			<stop stop-color="#0CBAF1"/>
			<stop offset="1.000000" stop-color="#E95CE9"/>
		</linearGradient>
		<linearGradient id="paint_linear_84_3609_0" x1="10.658203" y1="43.001202" x2="15.378285" y2="43.001202" gradientUnits="userSpaceOnUse">
			<stop stop-color="#0CBAF1"/>
			<stop offset="1.000000" stop-color="#E95CE9"/>
		</linearGradient>
		<linearGradient id="paint_linear_84_3611_0" x1="14.495483" y1="33.610195" x2="25.449848" y2="33.610195" gradientUnits="userSpaceOnUse">
			<stop stop-color="#0CBAF1"/>
			<stop offset="1.000000" stop-color="#E95CE9"/>
		</linearGradient>
		<linearGradient id="paint_linear_84_3613_0" x1="2.412231" y1="23.221870" x2="45.587761" y2="23.221870" gradientUnits="userSpaceOnUse">
			<stop stop-color="#0CBAF1"/>
			<stop offset="1.000000" stop-color="#E95CE9"/>
		</linearGradient>
		<linearGradient id="paint_linear_84_3615_0" x1="2.412354" y1="14.189575" x2="45.587883" y2="14.189575" gradientUnits="userSpaceOnUse">
			<stop stop-color="#0CBAF1"/>
			<stop offset="1.000000" stop-color="#E95CE9"/>
		</linearGradient>
	</defs>
	<mask id="mask84_3579" mask-type="alpha" maskUnits="userSpaceOnUse" x="0.000000" y="0.000000" width="48.000000" height="48.000000">
		<path id="path3726" d="M0 0L48 0L48 48L0 48L0 0Z" fill="#000000" fill-opacity="1.000000" fill-rule="nonzero"/>
	</mask>
	<g mask="url(#mask84_3579)">
		<path id="path3732 (Stroke)" d="M7.34985 6.64551C7.34985 8.43457 8.80981 9.89453 10.5986 9.89453C10.9869 9.89453 11.3018 9.58008 11.3018 9.19141C11.3018 8.80273 10.9869 8.48828 10.5986 8.48828C9.58667 8.48828 8.7561 7.65723 8.7561 6.64551L8.7561 3.24902C8.7561 2.2373 9.58667 1.40625 10.5986 1.40625C11.6139 1.40625 12.4441 2.2373 12.4441 3.24902L12.4441 4.94727C12.4441 5.33594 12.7588 5.65039 13.1472 5.65039C13.5355 5.65039 13.8503 5.33594 13.8503 4.94727L13.8503 3.24902C13.8503 1.45996 12.3896 0 10.5986 0C8.80981 0 7.34985 1.46094 7.34985 3.24902L7.34985 6.64551Z" fill="url(#paint_linear_84_3583_0)" fill-opacity="1.000000" fill-rule="evenodd"/>
		<path id="path3736 (Stroke)" d="M16.5045 6.64551C16.5045 8.43457 17.9646 9.89453 19.7534 9.89453C20.1417 9.89453 20.4565 9.58008 20.4565 9.19141C20.4565 8.80273 20.1417 8.48828 19.7534 8.48828C18.7413 8.48828 17.9108 7.65723 17.9108 6.64551L17.9108 3.24902C17.9108 2.2373 18.7413 1.40625 19.7534 1.40625C20.7687 1.40625 21.5988 2.2373 21.5988 3.24902L21.5988 4.94727C21.5988 5.33594 21.9136 5.65039 22.3019 5.65039C22.6903 5.65039 23.005 5.33594 23.005 4.94727L23.005 3.24902C23.005 1.45996 21.5444 0 19.7534 0C17.9646 0 16.5045 1.46094 16.5045 3.24902L16.5045 6.64551Z" fill="url(#paint_linear_84_3585_0)" fill-opacity="1.000000" fill-rule="evenodd"/>
		<path id="path3740 (Stroke)" d="M25.6593 6.64551C25.6593 8.43457 27.1194 9.89453 28.9082 9.89453C29.2965 9.89453 29.6113 9.58008 29.6113 9.19141C29.6113 8.80273 29.2965 8.48828 28.9082 8.48828C27.8961 8.48828 27.0656 7.65723 27.0656 6.64551L27.0656 3.24902C27.0656 2.2373 27.8961 1.40625 28.9082 1.40625C29.9235 1.40625 30.7535 2.2373 30.7535 3.24902L30.7535 4.94727C30.7535 5.33594 31.0684 5.65039 31.4567 5.65039C31.8451 5.65039 32.1598 5.33594 32.1598 4.94727L32.1598 3.24902C32.1598 1.45996 30.6992 0 28.9082 0C27.1194 0 25.6593 1.46094 25.6593 3.24902L25.6593 6.64551Z" fill="url(#paint_linear_84_3587_0)" fill-opacity="1.000000" fill-rule="evenodd"/>
		<path id="path3744 (Stroke)" d="M34.8141 6.64551C34.8141 8.43457 36.2747 9.89453 38.0657 9.89453C38.454 9.89453 38.7688 9.58008 38.7688 9.19141C38.7688 8.80273 38.454 8.48828 38.0657 8.48828C37.0504 8.48828 36.2203 7.65723 36.2203 6.64551L36.2203 3.24902C36.2203 2.2373 37.0504 1.40625 38.0657 1.40625C39.0778 1.40625 39.9083 2.2373 39.9083 3.24902L39.9083 4.94727C39.9083 5.33594 40.2231 5.65039 40.6115 5.65039C40.9999 5.65039 41.3146 5.33594 41.3146 4.94727L41.3146 3.24902C41.3146 1.46094 39.8545 0 38.0657 0C36.2747 0 34.8141 1.45996 34.8141 3.24902L34.8141 6.64551Z" fill="url(#paint_linear_84_3589_0)" fill-opacity="1.000000" fill-rule="evenodd"/>
		<path id="path3748 (Stroke)" d="M31.9893 38.0947C32.2322 37.792 32.1836 37.3496 31.8806 37.1064L15.054 23.6123C14.751 23.3691 14.3085 23.418 14.0656 23.7207C13.8225 24.0234 13.8712 24.4658 14.1742 24.709L31.0009 38.2041C31.3038 38.4463 31.7463 38.3984 31.9893 38.0947Z" fill="url(#paint_linear_84_3591_0)" fill-opacity="1.000000" fill-rule="evenodd"/>
		<path id="path3752 (Stroke)" d="M26.6084 25.7324C26.9114 25.9746 27.3539 25.9268 27.5967 25.623L30.2169 22.3545C30.4598 22.0518 30.4111 21.6094 30.1082 21.3662C29.8052 21.123 29.3625 21.1719 29.1198 21.4756L26.4995 24.7441C26.2566 25.0469 26.3053 25.4893 26.6084 25.7324Z" fill="url(#paint_linear_84_3593_0)" fill-opacity="1.000000" fill-rule="evenodd"/>
		<path id="path3756 (Stroke)" d="M21.5549 26.7012C21.8474 26.957 22.2915 26.9268 22.5471 26.6348C23.4762 25.5713 24.5944 24.2051 25.4497 22.5674C25.6294 22.2227 25.4961 21.7979 25.1519 21.6182C24.8076 21.4385 24.3828 21.5723 24.2031 21.916C23.4269 23.4033 22.3979 24.668 21.4882 25.709C21.2325 26.002 21.2626 26.4463 21.5549 26.7012Z" fill="url(#paint_linear_84_3595_0)" fill-opacity="1.000000" fill-rule="evenodd"/>
		<path id="path3760 (Stroke)" d="M26.7592 30.874C27.072 31.1045 27.5121 31.0371 27.7421 30.7236C28.5602 29.6113 29.5728 28.3301 30.854 27.2529C31.1514 27.0029 31.1898 26.5596 30.9401 26.2627C30.6902 25.9648 30.2467 25.9268 29.9493 26.1768C28.5361 27.3643 27.4438 28.7559 26.6091 29.8906C26.379 30.2041 26.4462 30.6445 26.7592 30.874Z" fill="url(#paint_linear_84_3597_0)" fill-opacity="1.000000" fill-rule="evenodd"/>
		<path id="path3764 (Stroke)" d="M30.0132 33.4854C30.3298 33.71 30.7688 33.6357 30.9937 33.3193C32.0977 31.7646 33.696 29.8877 36.5897 29.75C36.9775 29.7314 37.2771 29.4023 37.2587 29.0146C37.2401 28.627 36.9108 28.3271 36.5228 28.3457C32.9376 28.5166 30.9965 30.8867 29.847 32.5049C29.6222 32.8213 29.6967 33.2607 30.0132 33.4854Z" fill="url(#paint_linear_84_3599_0)" fill-opacity="1.000000" fill-rule="evenodd"/>
		<path id="path3768 (Stroke)" d="M19.3892 23.7559C19.7231 23.9541 20.1545 23.8438 20.3528 23.5098C20.7822 22.7871 21.3781 21.6143 21.1857 19.915C21.142 19.5293 20.7937 19.252 20.4078 19.2959C20.022 19.3389 19.7446 19.6875 19.7883 20.0732C19.9307 21.3301 19.5061 22.1816 19.1436 22.792C18.9453 23.126 19.0553 23.5576 19.3892 23.7559Z" fill="url(#paint_linear_84_3601_0)" fill-opacity="1.000000" fill-rule="evenodd"/>
		<path id="path3772 (Stroke)" d="M10.4924 47.9746C10.769 47.9268 11.0682 47.8125 11.371 47.6729C11.3856 47.666 11.3999 47.6592 11.4141 47.6514L30.4836 37.2363C30.6899 37.124 30.8263 36.916 30.847 36.6816C30.8677 36.4473 30.7699 36.2188 30.5865 36.0713L16.3481 24.6494C16.1648 24.502 15.92 24.457 15.6959 24.5273C15.4718 24.5986 15.298 24.7773 15.2327 25.0029L9.20825 45.8613C9.20386 45.877 9.19995 45.8916 9.19653 45.9072C9.12292 46.2471 9.07666 46.5723 9.09155 46.8574C9.10596 47.1328 9.18604 47.5127 9.51465 47.7725C9.84143 48.0303 10.2272 48.0205 10.4924 47.9746ZM10.566 46.2275L16.291 26.4062L28.8839 36.5078L10.7617 46.4053C10.6694 46.4473 10.5875 46.4814 10.515 46.5098C10.5266 46.4287 10.5433 46.335 10.566 46.2275Z" fill="url(#paint_linear_84_3603_0)" fill-opacity="1.000000" fill-rule="evenodd"/>
		<path id="path3776 (Stroke)" d="M22.2367 41.7285C22.5397 41.4854 22.5885 41.043 22.3457 40.7402L14.6233 31.1035C14.3805 30.8008 13.9379 30.752 13.6349 30.9951C13.3319 31.2383 13.2831 31.6807 13.5259 31.9834L21.2483 41.6191C21.4912 41.9229 21.9337 41.9707 22.2367 41.7285Z" fill="url(#paint_linear_84_3605_0)" fill-opacity="1.000000" fill-rule="evenodd"/>
		<path id="path3780 (Stroke)" d="M18.0646 44.0059C18.3676 43.7627 18.4163 43.3203 18.1733 43.0176L13.0339 36.6074C12.791 36.3047 12.3485 36.2559 12.0455 36.499C11.7426 36.7412 11.6938 37.1836 11.9368 37.4873L17.0762 43.8965C17.3191 44.2002 17.7616 44.248 18.0646 44.0059Z" fill="url(#paint_linear_84_3607_0)" fill-opacity="1.000000" fill-rule="evenodd"/>
		<path id="path3784 (Stroke)" d="M15.115 45.6162C15.418 45.373 15.4666 44.9307 15.2236 44.6279L11.9099 40.4951C11.667 40.1924 11.2244 40.1436 10.9215 40.3867C10.6185 40.6299 10.5698 41.0723 10.8129 41.375L14.1266 45.5068C14.3695 45.8105 14.812 45.8584 15.115 45.6162Z" fill="url(#paint_linear_84_3609_0)" fill-opacity="1.000000" fill-rule="evenodd"/>
		<path id="path3788 (Stroke)" d="M25.1864 40.1172C25.4894 39.874 25.5382 39.4316 25.2954 39.1289L21.2668 34.1006C21.0239 33.7979 20.5814 33.749 20.2784 33.9912C19.9753 34.2344 19.9265 34.6768 20.1693 34.9805L24.198 40.0078C24.4408 40.3105 24.8833 40.3604 25.1864 40.1172ZM19.082 32.501C19.3851 32.2578 19.4341 31.8154 19.1913 31.5127L15.7474 27.2129C15.5046 26.9092 15.0621 26.8604 14.759 27.1035C14.4559 27.3457 14.4071 27.7881 14.6498 28.0918L18.0938 32.3916C18.3365 32.6943 18.7791 32.7432 19.082 32.501Z" fill="url(#paint_linear_84_3611_0)" fill-opacity="1.000000" fill-rule="evenodd"/>
		<path id="path3792 (Stroke)" d="M2.41223 41.0713C2.41223 41.6934 2.91833 42.1992 3.54053 42.1992L11.2019 42.1992C11.5902 42.1992 11.905 41.8848 11.905 41.4961C11.905 41.1074 11.5902 40.793 11.2019 40.793L3.81848 40.793L3.81848 5.65039L44.1815 5.65039L44.1815 40.793L21.2178 40.793C20.8293 40.793 20.5146 41.1074 20.5146 41.4961C20.5146 41.8848 20.8293 42.1992 21.2178 42.1992L44.4595 42.1992C45.0817 42.1992 45.5878 41.6934 45.5878 41.0713L45.5878 5.37305C45.5878 4.75098 45.0817 4.24414 44.4595 4.24414L3.54053 4.24414C2.91821 4.24414 2.41223 4.75098 2.41223 5.37305L2.41223 41.0713Z" fill="url(#paint_linear_84_3613_0)" fill-opacity="1.000000" fill-rule="evenodd"/>
		<path id="path3796 (Stroke)" d="M2.41235 15.8398C2.41235 16.2285 2.72717 16.543 3.11548 16.543L22.2542 16.543C22.6425 16.543 22.9573 16.2285 22.9573 15.8398C22.9573 15.4512 22.6425 15.1367 22.2542 15.1367L3.11548 15.1367C2.72717 15.1367 2.41235 15.4512 2.41235 15.8398ZM24.7958 15.8398C24.7958 16.2285 25.1105 16.543 25.4989 16.543L44.8848 16.543C45.2731 16.543 45.5879 16.2285 45.5879 15.8398C45.5879 15.4512 45.2731 15.1367 44.8848 15.1367L25.4989 15.1367C25.1105 15.1367 24.7958 15.4512 24.7958 15.8398ZM2.41235 12.5391C2.41235 12.9277 2.72717 13.2422 3.11548 13.2422L44.8848 13.2422C45.2731 13.2422 45.5879 12.9277 45.5879 12.5391C45.5879 12.1514 45.2731 11.8359 44.8848 11.8359L3.11548 11.8359C2.72717 11.8359 2.41235 12.1514 2.41235 12.5391Z" fill="url(#paint_linear_84_3615_0)" fill-opacity="1.000000" fill-rule="evenodd"/>
	</g>
</svg>
