<svg width="48.000000" height="48.000000" viewBox="0 0 48 48" fill="none" xmlns="http://www.w3.org/2000/svg" xmlns:xlink="http://www.w3.org/1999/xlink">
	<desc>
			Created with Pixso.
	</desc>
	<defs>
		<linearGradient id="paint_linear_84_3624_0" x1="0.751526" y1="16.961664" x2="32.568882" y2="16.961664" gradientUnits="userSpaceOnUse">
			<stop stop-color="#0CBAF1"/>
			<stop offset="1.000000" stop-color="#E95CE9"/>
		</linearGradient>
		<linearGradient id="paint_linear_84_3626_0" x1="7.647949" y1="22.490280" x2="20.614838" y2="22.490280" gradientUnits="userSpaceOnUse">
			<stop stop-color="#0CBAF1"/>
			<stop offset="1.000000" stop-color="#E95CE9"/>
		</linearGradient>
		<linearGradient id="paint_linear_84_3628_0" x1="7.726013" y1="13.538160" x2="14.233698" y2="13.538160" gradientUnits="userSpaceOnUse">
			<stop stop-color="#0CBAF1"/>
			<stop offset="1.000000" stop-color="#E95CE9"/>
		</linearGradient>
		<linearGradient id="paint_linear_84_3630_0" x1="17.928345" y1="17.252026" x2="24.436029" y2="17.252026" gradientUnits="userSpaceOnUse">
			<stop stop-color="#0CBAF1"/>
			<stop offset="1.000000" stop-color="#E95CE9"/>
		</linearGradient>
		<linearGradient id="paint_linear_84_3632_0" x1="8.016602" y1="9.951075" x2="15.858305" y2="9.951075" gradientUnits="userSpaceOnUse">
			<stop stop-color="#0CBAF1"/>
			<stop offset="1.000000" stop-color="#E95CE9"/>
		</linearGradient>
		<linearGradient id="paint_linear_84_3634_0" x1="19.552795" y1="14.142517" x2="26.002029" y2="14.142517" gradientUnits="userSpaceOnUse">
			<stop stop-color="#0CBAF1"/>
			<stop offset="1.000000" stop-color="#E95CE9"/>
		</linearGradient>
		<linearGradient id="paint_linear_84_3636_0" x1="18.383911" y1="31.037792" x2="47.248474" y2="31.037792" gradientUnits="userSpaceOnUse">
			<stop stop-color="#0CBAF1"/>
			<stop offset="1.000000" stop-color="#E95CE9"/>
		</linearGradient>
		<linearGradient id="paint_linear_84_3638_0" x1="28.591858" y1="36.966843" x2="41.558746" y2="36.966843" gradientUnits="userSpaceOnUse">
			<stop stop-color="#0CBAF1"/>
			<stop offset="1.000000" stop-color="#E95CE9"/>
		</linearGradient>
		<linearGradient id="paint_linear_84_3640_0" x1="23.525818" y1="30.420902" x2="29.375786" y2="30.420902" gradientUnits="userSpaceOnUse">
			<stop stop-color="#0CBAF1"/>
			<stop offset="1.000000" stop-color="#E95CE9"/>
		</linearGradient>
		<linearGradient id="paint_linear_84_3642_0" x1="33.070251" y1="27.243387" x2="39.885090" y2="27.243387" gradientUnits="userSpaceOnUse">
			<stop stop-color="#0CBAF1"/>
			<stop offset="1.000000" stop-color="#E95CE9"/>
		</linearGradient>
		<linearGradient id="paint_linear_84_3644_0" x1="32.141724" y1="24.027246" x2="39.983425" y2="24.027246" gradientUnits="userSpaceOnUse">
			<stop stop-color="#0CBAF1"/>
			<stop offset="1.000000" stop-color="#E95CE9"/>
		</linearGradient>
	</defs>
	<mask id="mask84_3620" mask-type="alpha" maskUnits="userSpaceOnUse" x="0.000000" y="0.000000" width="48.000000" height="48.000000">
		<path id="path3981" d="M0 0L48 0L48 48L0 48L0 0Z" fill="#000000" fill-opacity="1.000000" fill-rule="nonzero"/>
	</mask>
	<g mask="url(#mask84_3620)">
		<path id="path3987 (Stroke)" d="M13.1832 32.2686C11.0894 32.9756 8.78491 32.1367 7.63544 30.249L7.04895 30.6064L7.63544 30.249L3.73834 23.8496C2.02673 21.0391 1.68561 17.6025 2.81116 14.5107L6.77386 3.62305L6.1131 3.38281L6.77386 3.62305C7.4101 1.875 9.34296 0.973633 11.0909 1.61035L28.9451 8.1084L29.1855 7.44824L28.9451 8.1084C30.6931 8.74512 31.5944 10.6777 30.9582 12.4258L26.9955 23.3135C25.8699 26.4053 23.3998 28.8184 20.2821 29.8711L13.1832 32.2686L13.1832 32.2686ZM13.6331 33.6006C10.9161 34.5186 7.92596 33.4297 6.43433 30.9805L2.53723 24.5811L3.13776 24.2158L2.53723 24.5811C0.603455 21.4062 0.218018 17.5234 1.48969 14.0293L5.45239 3.14258C6.35425 0.664062 9.09406 -0.613281 11.5719 0.289062L29.426 6.78711C31.9039 7.68848 33.1815 10.4287 32.2797 12.9062L28.317 23.7939C27.0453 27.2881 24.2545 30.0137 20.732 31.2041L20.5223 30.583L20.732 31.2041L13.6332 33.6006C13.6332 33.6006 13.6332 33.6006 13.6331 33.6006Z" fill="url(#paint_linear_84_3624_0)" fill-opacity="1.000000" fill-rule="evenodd"/>
		<path id="path3991 (Stroke)" d="M18.5582 23.6562C17.1359 25.3164 14.7831 26.0098 12.6081 25.2188L12.3677 25.8789L12.6081 25.2188C10.4331 24.4268 9.07672 22.3828 9.0545 20.1963C10.2767 21.2119 11.7977 22.0869 13.5196 22.7139L13.5197 22.7139C15.2416 23.3408 16.9693 23.6475 18.5582 23.6562ZM12.1272 26.54C15.4115 27.7354 19.0132 26.2441 20.5405 23.1934C20.6562 22.9629 20.6357 22.6865 20.4871 22.4746C20.3386 22.2637 20.0859 22.1504 19.8291 22.1807C18.1213 22.3828 16.0761 22.1475 14.0006 21.3926C11.9252 20.6367 10.2076 19.502 9.02924 18.25C8.85211 18.0615 8.58588 17.9854 8.33606 18.0518C8.08624 18.1191 7.89313 18.3174 7.83319 18.5684C7.04211 21.8867 8.8429 25.3447 12.1271 26.54L12.1272 26.54Z" fill="url(#paint_linear_84_3626_0)" fill-opacity="1.000000" fill-rule="evenodd"/>
		<path id="path3995 (Stroke)" d="M13.701 15.4297C14.0778 15.3359 14.3068 14.9541 14.2125 14.5771C13.9155 13.3896 12.9825 12.3555 11.6845 11.8838L13.701 15.4297ZM13.701 15.4297C13.3243 15.5244 12.9426 15.2949 12.8483 14.9189L13.701 15.4297ZM12.8483 14.9189C12.6721 14.2139 12.0922 13.5283 11.2036 13.2051L12.8483 14.9189ZM7.85999 13.3037C8.08801 13.6182 8.52765 13.6885 8.84204 13.46C9.42993 13.0342 10.3149 12.8818 11.2035 13.2051L11.2036 13.2051L7.85999 13.3037ZM7.85999 13.3037C7.63202 12.9893 7.70203 12.5498 8.01636 12.3223L7.85999 13.3037ZM8.01636 12.3223C9.00714 11.6035 10.3865 11.4111 11.6844 11.8838L8.01636 12.3223Z" fill="url(#paint_linear_84_3628_0)" fill-opacity="1.000000" fill-rule="evenodd"/>
		<path id="path3999 (Stroke)" d="M23.9034 19.1436C24.2801 19.0498 24.5091 18.668 24.4149 18.291C24.1178 17.1035 23.1848 16.0693 21.8868 15.5977L23.9034 19.1436ZM23.9034 19.1436C23.5267 19.2383 23.1448 19.0088 23.0507 18.6328L23.9034 19.1436ZM23.0507 18.6328C22.8744 17.9277 22.2945 17.2422 21.4059 16.9189L23.0507 18.6328ZM18.0623 17.0176C18.2903 17.332 18.7299 17.4023 19.0443 17.1738C19.6323 16.748 20.5172 16.5957 21.4058 16.9189L21.4059 16.9189L18.0623 17.0176ZM18.0623 17.0176C17.8344 16.7031 17.9044 16.2637 18.2188 16.0361L18.0623 17.0176ZM18.2188 16.0361C19.2095 15.3174 20.5888 15.125 21.8868 15.5977L18.2188 16.0361Z" fill="url(#paint_linear_84_3630_0)" fill-opacity="1.000000" fill-rule="evenodd"/>
		<path id="path4003 (Stroke)" d="M15.8157 10.5254C15.9485 10.1602 15.7604 9.75684 15.3954 9.62402C13.3684 8.88672 11.6484 8.83496 10.4224 8.97656C9.81061 9.04688 9.32343 9.16504 8.98334 9.26758C8.81323 9.31934 8.67963 9.36719 8.58539 9.4043C8.53827 9.42188 8.50092 9.4375 8.47369 9.44922C8.46008 9.45508 8.44897 9.45996 8.44049 9.46387C8.43622 9.46582 8.43262 9.46777 8.42969 9.46875L8.42572 9.4707L8.42413 9.47168L8.4234 9.47168C8.4231 9.47168 8.42273 9.47168 8.71991 10.1094L8.42273 9.47168C8.0708 9.63574 7.91852 10.0547 8.08264 10.4062C8.24628 10.7568 8.66278 10.9102 9.0141 10.748C9.01422 10.748 9.01434 10.748 9.01447 10.748C9.01611 10.7471 9.02014 10.7451 9.02655 10.7422C9.03949 10.7373 9.06189 10.7275 9.09357 10.7148C9.15698 10.6904 9.25714 10.6543 9.39142 10.6133C9.6601 10.5322 10.0643 10.4336 10.5831 10.373C11.6182 10.2539 13.1157 10.291 14.9145 10.9453C15.2794 11.0781 15.6829 10.8906 15.8157 10.5254ZM9.01642 10.7471C9.01642 10.7471 9.01648 10.7471 9.01648 10.7471C9.01648 10.7471 9.01648 10.7471 9.01648 10.7471L9.01642 10.7471Z" fill="url(#paint_linear_84_3632_0)" fill-opacity="1.000000" fill-rule="evenodd"/>
		<path id="path4007 (Stroke)" d="M25.5959 16.7803C25.9478 16.6162 26.1001 16.1982 25.936 15.8467L25.2987 16.1436C25.936 15.8467 25.9359 15.8457 25.9357 15.8457L25.9354 15.8447L25.9346 15.8428L25.9327 15.8389C25.9313 15.8359 25.9296 15.833 25.9276 15.8291C25.9235 15.8203 25.9182 15.8096 25.9115 15.7959C25.8981 15.7695 25.8794 15.7344 25.855 15.6895C25.8063 15.6016 25.7348 15.4785 25.6377 15.3301C25.4434 15.0322 25.1461 14.6289 24.7227 14.1816C23.8742 13.2852 22.5237 12.2188 20.4966 11.4805C20.1317 11.3477 19.7282 11.5361 19.5954 11.9014C19.4626 12.2656 19.6507 12.6699 20.0156 12.8027C21.8145 13.457 22.9852 14.3916 23.7016 15.1484C24.0606 15.5273 24.3066 15.8633 24.46 16.0986C24.5367 16.2158 24.5901 16.3076 24.6229 16.3672C24.6393 16.3975 24.6505 16.4189 24.6568 16.4316C24.66 16.4375 24.6619 16.4414 24.6627 16.4434C24.6628 16.4434 24.6628 16.4434 24.6628 16.4434C24.8279 16.793 25.2449 16.9443 25.5959 16.7803Z" fill="url(#paint_linear_84_3634_0)" fill-opacity="1.000000" fill-rule="evenodd"/>
		<path id="path4011 (Stroke)" d="M40.3646 44.3252C39.215 46.2129 36.9107 47.0518 34.8168 46.3447L27.7179 43.9473C27.7179 43.9473 27.7179 43.9473 27.7179 43.9473C24.6001 42.8945 22.13 40.4814 21.0045 37.3896C21.0045 37.3896 21.0045 37.3896 21.0045 37.3896L19.7479 33.9365C19.6151 33.5723 19.2117 33.3838 18.8467 33.5166C18.4818 33.6494 18.2937 34.0527 18.4265 34.418L19.683 37.8701L19.683 37.8701C20.9547 41.3643 23.7455 44.0898 27.268 45.2793L27.268 45.2793L34.3668 47.6768C37.0839 48.5947 40.074 47.5059 41.5656 45.0566L45.4627 38.6572L44.8622 38.292L45.4627 38.6572C47.3965 35.4824 47.7819 31.5996 46.5104 28.1055L42.5477 17.2188C41.6458 14.7402 38.906 13.4629 36.428 14.3652L36.428 14.3652L33.2785 15.5107C32.9136 15.6436 32.7255 16.0479 32.8583 16.4121C32.9911 16.7773 33.3946 16.9658 33.7595 16.833L36.909 15.6865C38.6572 15.0498 40.59 15.9512 41.2262 17.6992L45.189 28.5869C46.3144 31.6787 45.9733 35.1152 44.2617 37.9258L40.3646 44.3252L40.9651 44.6914L40.3646 44.3252Z" fill="url(#paint_linear_84_3636_0)" fill-opacity="1.000000" fill-rule="evenodd"/>
		<path id="path4015 (Stroke)" d="M29.28 41.4053C29.5298 41.4717 29.796 41.3955 29.9731 41.207C31.1515 39.9551 32.8691 38.8203 34.9445 38.0645L34.704 37.4043L34.9445 38.0645C37.02 37.3096 39.0652 37.0742 40.773 37.2764C41.0298 37.3066 41.2825 37.1943 41.431 36.9824C41.5797 36.7705 41.6001 36.4951 41.4844 36.2637C39.9572 33.2129 36.3554 31.7217 33.0711 32.917L33.071 32.917C29.7868 34.1123 27.986 37.5703 28.7771 40.8887C28.837 41.1396 29.0302 41.3389 29.28 41.4053ZM29.9984 39.2607C30.0206 37.0742 31.377 35.0303 33.5521 34.2383L33.3116 33.5781L33.5521 34.2383C35.7271 33.4473 38.0798 34.1406 39.5021 35.8018C37.9132 35.8096 36.1855 36.1162 34.4636 36.7432L34.4635 36.7432C32.7416 37.3701 31.2206 38.2451 29.9984 39.2607ZM33.3116 33.5781L33.3104 33.5752L33.3116 33.5781Z" fill="url(#paint_linear_84_3638_0)" fill-opacity="1.000000" fill-rule="evenodd"/>
		<path id="path4019 (Stroke)" d="M26.8264 30.8623C26.0524 31.4053 25.1582 31.4883 24.4798 31.2295C24.117 31.0908 23.7106 31.2734 23.5722 31.6357C23.4338 31.999 23.6157 32.4053 23.9785 32.5439C25.1219 32.9795 26.5038 32.8066 27.6344 32.0137L27.6345 32.0137C28.7649 31.2197 29.397 29.9785 29.3752 28.7549C29.3683 28.3672 29.048 28.0576 28.6597 28.0645C28.2715 28.0713 27.9623 28.3916 27.9692 28.7803C27.9821 29.5059 27.6005 30.3193 26.8265 30.8623L26.8264 30.8623Z" fill="url(#paint_linear_84_3640_0)" fill-opacity="1.000000" fill-rule="evenodd"/>
		<path id="path4023 (Stroke)" d="M33.2268 27.3525C33.9966 28.3047 35.2786 28.8486 36.6547 28.7295C38.0309 28.6113 39.2006 27.8555 39.7961 26.7861C39.985 26.4473 39.8632 26.0186 39.524 25.8301C39.1848 25.6406 38.7565 25.7627 38.5676 26.1016C38.2142 26.7363 37.476 27.248 36.5338 27.3291L36.5338 27.3291C35.5917 27.4102 34.7768 27.0332 34.32 26.4688C34.0757 26.166 33.633 26.1201 33.3311 26.3643C33.0292 26.6084 32.9825 27.0508 33.2268 27.3525Z" fill="url(#paint_linear_84_3642_0)" fill-opacity="1.000000" fill-rule="evenodd"/>
		<path id="path4027 (Stroke)" d="M32.1843 24.6016C32.3171 24.9668 32.7206 25.1543 33.0855 25.0215C34.8843 24.3672 36.3818 24.3301 37.4169 24.4492C37.9357 24.5098 38.3399 24.6084 38.6086 24.6895C38.7429 24.7305 38.8431 24.7666 38.9064 24.791C38.9381 24.8037 38.9606 24.8135 38.9734 24.8184C38.9799 24.8213 38.9839 24.8232 38.9855 24.8242L38.985 24.8232L38.9841 24.8232L38.9836 24.8232C38.9833 24.8223 38.983 24.8223 39.2667 24.2139L38.983 24.8223C38.9839 24.8232 38.9849 24.8232 38.986 24.8242C38.9864 24.8242 38.9865 24.8242 38.9861 24.8242L38.9855 24.8242C38.9857 24.8242 38.9858 24.8242 38.986 24.8242C39.3373 24.9863 39.7537 24.833 39.9174 24.4824C40.0815 24.1309 39.9292 23.7119 39.5773 23.5479L39.2802 24.1855C39.5773 23.5479 39.577 23.5479 39.5766 23.5479L39.5759 23.5479L39.5743 23.5469L39.5704 23.5449C39.5674 23.5439 39.5638 23.542 39.5595 23.54C39.551 23.5361 39.54 23.5312 39.5264 23.5254C39.4991 23.5137 39.4618 23.498 39.4147 23.4805C39.3204 23.4434 39.1868 23.3955 39.0167 23.3438C38.6766 23.2412 38.1894 23.123 37.5777 23.0527C36.3516 22.9111 34.6317 22.9629 32.6046 23.7002C32.2396 23.833 32.0515 24.2363 32.1843 24.6016Z" fill="url(#paint_linear_84_3644_0)" fill-opacity="1.000000" fill-rule="evenodd"/>
	</g>
</svg>
