<svg width="48.000000" height="48.000000" viewBox="0 0 48 48" fill="none" xmlns="http://www.w3.org/2000/svg" xmlns:xlink="http://www.w3.org/1999/xlink">
	<desc>
			Created with Pixso.
	</desc>
	<defs>
		<linearGradient id="paint_linear_84_3554_0" x1="21.229736" y1="28.704025" x2="26.770361" y2="28.704025" gradientUnits="userSpaceOnUse">
			<stop stop-color="#0CBAF1"/>
			<stop offset="1.000000" stop-color="#E95CE9"/>
		</linearGradient>
		<linearGradient id="paint_linear_84_3556_0" x1="28.583252" y1="34.004219" x2="34.087555" y2="34.004219" gradientUnits="userSpaceOnUse">
			<stop stop-color="#0CBAF1"/>
			<stop offset="1.000000" stop-color="#E95CE9"/>
		</linearGradient>
		<linearGradient id="paint_linear_84_3558_0" x1="-0.000244" y1="23.999680" x2="48.000320" y2="23.999680" gradientUnits="userSpaceOnUse">
			<stop stop-color="#0CBAF1"/>
			<stop offset="1.000000" stop-color="#E95CE9"/>
		</linearGradient>
		<linearGradient id="paint_linear_84_3560_0" x1="14.880249" y1="27.858429" x2="22.747467" y2="27.858429" gradientUnits="userSpaceOnUse">
			<stop stop-color="#0CBAF1"/>
			<stop offset="1.000000" stop-color="#E95CE9"/>
		</linearGradient>
		<linearGradient id="paint_linear_84_3562_0" x1="25.252441" y1="27.858429" x2="33.119659" y2="27.858429" gradientUnits="userSpaceOnUse">
			<stop stop-color="#0CBAF1"/>
			<stop offset="1.000000" stop-color="#E95CE9"/>
		</linearGradient>
		<linearGradient id="paint_linear_84_3564_0" x1="4.570801" y1="21.055485" x2="15.994894" y2="21.055485" gradientUnits="userSpaceOnUse">
			<stop stop-color="#0CBAF1"/>
			<stop offset="1.000000" stop-color="#E95CE9"/>
		</linearGradient>
		<linearGradient id="paint_linear_84_3566_0" x1="36.819458" y1="18.935032" x2="42.246269" y2="18.935032" gradientUnits="userSpaceOnUse">
			<stop stop-color="#0CBAF1"/>
			<stop offset="1.000000" stop-color="#E95CE9"/>
		</linearGradient>
		<linearGradient id="paint_linear_84_3568_0" x1="32.578613" y1="23.175266" x2="38.005424" y2="23.175266" gradientUnits="userSpaceOnUse">
			<stop stop-color="#0CBAF1"/>
			<stop offset="1.000000" stop-color="#E95CE9"/>
		</linearGradient>
		<linearGradient id="paint_linear_84_3570_0" x1="20.029419" y1="19.757610" x2="28.190262" y2="19.757610" gradientUnits="userSpaceOnUse">
			<stop stop-color="#0CBAF1"/>
			<stop offset="1.000000" stop-color="#E95CE9"/>
		</linearGradient>
		<linearGradient id="paint_linear_84_3572_0" x1="13.373413" y1="11.993134" x2="16.528240" y2="11.993134" gradientUnits="userSpaceOnUse">
			<stop stop-color="#0CBAF1"/>
			<stop offset="1.000000" stop-color="#E95CE9"/>
		</linearGradient>
		<linearGradient id="paint_linear_84_3574_0" x1="17.885620" y1="12.242737" x2="34.626564" y2="12.242737" gradientUnits="userSpaceOnUse">
			<stop stop-color="#0CBAF1"/>
			<stop offset="1.000000" stop-color="#E95CE9"/>
		</linearGradient>
	</defs>
	<mask id="mask84_3550" mask-type="alpha" maskUnits="userSpaceOnUse" x="0.000000" y="0.000000" width="48.000000" height="48.000000">
		<path id="path4047" d="M0 0L48 0L48 48L0 48L0 0Z" fill="#000000" fill-opacity="1.000000" fill-rule="nonzero"/>
	</mask>
	<g mask="url(#mask84_3550)">
		<path id="path4053 (Stroke)" d="M26.0658 28C24.6886 28.0029 23.3115 28.0029 21.9343 28C21.546 27.999 21.2306 28.3135 21.2297 28.7012C21.229 29.0898 21.5431 29.4053 21.9314 29.4062C23.3105 29.4092 24.6896 29.4092 26.0687 29.4062C26.457 29.4053 26.7711 29.0898 26.7704 28.7012C26.7695 28.3135 26.4541 27.999 26.0658 28Z" fill="url(#paint_linear_84_3554_0)" fill-opacity="1.000000" fill-rule="evenodd"/>
		<path id="path4057 (Stroke)" d="M33.9834 37.2891C34.1866 36.958 34.0833 36.5254 33.7524 36.3213C31.873 35.167 30.4572 33.2744 29.9751 30.9453C29.8964 30.5645 29.5243 30.3203 29.144 30.3994C28.7638 30.4775 28.5193 30.8496 28.598 31.2305C29.1621 33.9561 30.8213 36.1709 33.0162 37.5195C33.3472 37.7236 33.7802 37.6201 33.9834 37.2891Z" fill="url(#paint_linear_84_3556_0)" fill-opacity="1.000000" fill-rule="evenodd"/>
		<path id="path4061 (Stroke)" d="M7.61548 38.6855C12.9525 39.9746 18.2939 36.5879 19.403 31.2295C19.4817 30.8496 19.2372 30.4775 18.8569 30.3984C18.4767 30.3203 18.1046 30.5645 18.0259 30.9443C17.0781 35.5234 12.5109 38.4219 7.94458 37.3184L7.94226 37.3184C7.88464 37.3047 7.82776 37.291 7.76941 37.2764L7.76904 37.2764C3.48181 36.2422 0.743774 32.0361 1.54553 27.7021C2.22375 24.0371 3.14478 20.3301 4.23926 16.5879C5.24121 13.1641 8.33105 10.7764 11.8984 10.6543L11.8986 10.6543C19.9666 10.376 28.0336 10.376 36.1014 10.6543L36.1017 10.6543C39.6691 10.7764 42.7589 13.1641 43.7607 16.5879C44.8553 20.3301 45.7764 24.0371 46.4546 27.7021C47.2563 32.0361 44.5183 36.2422 40.231 37.2764L40.2306 37.2764C40.2025 37.2832 40.174 37.29 40.1447 37.2979L40.1443 37.2979L40.1431 37.2979C40.1144 37.3047 40.0848 37.3115 40.0555 37.3184L7.61548 38.6855ZM7.61548 38.6855C7.55566 38.6719 7.49695 38.6572 7.4397 38.6436L7.43909 38.6436C7.43896 38.6436 7.43884 38.6436 7.43872 38.6436C2.42822 37.4336 -0.775513 32.5176 0.16272 27.4463L0.16272 27.4463C0.851318 23.7246 1.78467 19.9707 2.88953 16.1924L2.88965 16.1924C4.06274 12.1836 7.67957 9.3916 11.8502 9.24902C19.9504 8.96973 28.0497 8.96973 36.1499 9.24902C40.3206 9.3916 43.9374 12.1836 45.1105 16.1924L45.1105 16.1924C46.2153 19.9707 47.1487 23.7246 47.8374 27.4463C48.7756 32.5176 45.5719 37.4336 40.5613 38.6436C40.5315 38.6504 40.5016 38.6582 40.4724 38.665C40.443 38.6719 40.4143 38.6787 40.386 38.6855L40.3857 38.6855C38.8186 39.0645 37.2501 39.0391 35.7878 38.6797C35.4108 38.5869 35.1804 38.2061 35.2732 37.8281C35.3661 37.4512 35.7469 37.2207 36.124 37.3135C37.3729 37.6211 38.7126 37.6436 40.0553 37.3193L7.61548 38.6855Z" fill="url(#paint_linear_84_3558_0)" fill-opacity="1.000000" fill-rule="evenodd"/>
		<path id="path4065 (Stroke)" d="M18.814 30.3857C17.4181 30.3857 16.2865 29.2539 16.2865 27.8584C16.2865 26.4629 17.4181 25.3311 18.814 25.3311C20.2096 25.3311 21.3412 26.4629 21.3412 27.8584C21.3412 29.2539 20.2096 30.3857 18.814 30.3857ZM14.8802 27.8584C14.8802 30.0312 16.6415 31.792 18.814 31.792C20.9863 31.792 22.7474 30.0312 22.7474 27.8584C22.7474 25.6855 20.9863 23.9248 18.814 23.9248C16.6415 23.9248 14.8802 25.6855 14.8802 27.8584Z" fill="url(#paint_linear_84_3560_0)" fill-opacity="1.000000" fill-rule="evenodd"/>
		<path id="path4069 (Stroke)" d="M29.1862 30.3857C27.7903 30.3857 26.6587 29.2539 26.6587 27.8584C26.6587 26.4629 27.7903 25.3311 29.1862 25.3311C30.5818 25.3311 31.7134 26.4629 31.7134 27.8584C31.7134 29.2539 30.5818 30.3857 29.1862 30.3857ZM25.2524 27.8584C25.2524 30.0312 27.0137 31.792 29.1862 31.792C31.3585 31.792 33.1196 30.0312 33.1196 27.8584C33.1196 25.6855 31.3585 23.9248 29.1862 23.9248C27.0137 23.9248 25.2524 25.6855 25.2524 27.8584Z" fill="url(#paint_linear_84_3562_0)" fill-opacity="1.000000" fill-rule="evenodd"/>
		<path id="path4073 (Stroke)" d="M10.262 26.7676L10.3037 26.7676C11.8318 26.7666 13.0732 25.5469 13.1145 24.0244L13.1145 24.0244C13.1157 23.9805 13.1169 23.9355 13.118 23.8906C13.1627 23.8896 13.2074 23.8887 13.2521 23.8877L13.2522 23.8877C14.7745 23.8457 15.9943 22.6045 15.9949 21.0762L15.9949 21.0342C15.9943 19.5068 14.7745 18.2646 13.2522 18.2236L13.2521 18.2236C13.2074 18.2227 13.1627 18.2217 13.118 18.2207C13.1169 18.1758 13.1157 18.1309 13.1145 18.0859L13.1145 18.0859C13.0732 16.5635 11.8318 15.3438 10.3037 15.3438L10.262 15.3438C8.73401 15.3438 7.49243 16.5635 7.45117 18.0859L7.45117 18.0859C7.44995 18.1309 7.44873 18.1758 7.44763 18.2207C7.40295 18.2217 7.35828 18.2227 7.31372 18.2236L7.3136 18.2236C5.79126 18.2646 4.57153 19.5068 4.5708 21.0342L4.5708 21.0762C4.57153 22.6045 5.79126 23.8457 7.3136 23.8877L7.31372 23.8877C7.3584 23.8887 7.40295 23.8896 7.44763 23.8906C7.44873 23.9355 7.44995 23.9805 7.45117 24.0244L7.45117 24.0244C7.49243 25.5469 8.73401 26.7666 10.262 26.7676ZM10.3031 25.3613L10.2627 25.3613C10.2627 25.3613 10.2626 25.3613 10.2626 25.3613C10.2625 25.3613 10.2625 25.3613 10.2623 25.3613C9.5011 25.3604 8.87769 24.7529 8.85693 23.9873L10.3031 25.3613ZM10.3035 25.3613C10.3033 25.3613 10.3032 25.3613 10.3032 25.3613C10.3032 25.3613 10.3031 25.3613 10.3031 25.3613L10.3035 25.3613ZM10.3035 25.3613C11.0646 25.3604 11.688 24.7529 11.7089 23.9873L10.3035 25.3613ZM8.85693 23.9863C8.84973 23.7207 8.84351 23.4551 8.83826 23.1895C8.83081 22.8115 8.52673 22.5078 8.14929 22.5C7.88342 22.4951 7.61755 22.4883 7.35168 22.4814L8.85693 23.9863ZM11.7089 23.9863C11.7159 23.7207 11.7222 23.4551 11.7275 23.1895L11.7089 23.9863ZM13.2141 22.4814C12.9481 22.4883 12.6823 22.4951 12.4165 22.5C12.0392 22.5078 11.7351 22.8115 11.7275 23.1895L13.2141 22.4814ZM13.2141 22.4814C13.9803 22.4609 14.5881 21.8369 14.5886 21.0762C14.5886 21.0762 14.5886 21.0762 14.5886 21.0762L14.5886 21.0352L13.2141 22.4814ZM5.97705 21.0762C5.97705 21.0762 5.97705 21.0762 5.97705 21.0762L5.97705 21.0352C5.97705 21.0352 5.97705 21.0352 5.97705 21.0352C5.97705 21.0352 5.97705 21.0352 5.97705 21.0352C5.97766 20.2734 6.58557 19.6504 7.35168 19.6299C7.61743 19.6221 7.8833 19.6162 8.14905 19.6113C8.52661 19.6035 8.83081 19.2988 8.83826 18.9219C8.84351 18.6562 8.84973 18.3896 8.85693 18.124L5.97705 21.0762ZM5.97705 21.0762C5.97705 21.0762 5.97705 21.0762 5.97705 21.0762ZM5.97705 21.0762C5.97766 21.8369 6.58557 22.4609 7.35168 22.4814L5.97705 21.0762ZM14.5886 21.0352C14.5881 20.2734 13.9803 19.6504 13.2141 19.6299L14.5886 21.0352ZM13.2141 19.6299C12.9481 19.6221 12.6824 19.6162 12.4167 19.6113C12.0393 19.6035 11.7351 19.2998 11.7275 18.9219C11.7222 18.6562 11.7159 18.3896 11.7089 18.124L13.2141 19.6299ZM8.85693 18.124C8.87769 17.3584 9.50134 16.75 10.2627 16.75L10.3031 16.75C11.0645 16.75 11.688 17.3584 11.7089 18.124L8.85693 18.124Z" fill="url(#paint_linear_84_3564_0)" fill-opacity="1.000000" fill-rule="evenodd"/>
		<path id="path4077 (Stroke)" d="M40.4572 19.8594C39.9467 20.3701 39.119 20.3701 38.6085 19.8594C38.0981 19.3486 38.0981 18.5215 38.6085 18.0107C39.119 17.5 39.9467 17.5 40.4572 18.0107C40.9677 18.5215 40.9677 19.3486 40.4572 19.8594ZM37.6141 20.8535C38.6738 21.9131 40.3918 21.9131 41.4515 20.8535C42.5112 19.7939 42.5112 18.0762 41.4515 17.0166C40.3918 15.957 38.6738 15.957 37.6141 17.0166C36.5546 18.0762 36.5546 19.7939 37.6141 20.8535Z" fill="url(#paint_linear_84_3566_0)" fill-opacity="1.000000" fill-rule="evenodd"/>
		<path id="path4081 (Stroke)" d="M36.2163 24.0996C35.7058 24.6104 34.8782 24.6104 34.3677 24.0996C33.8573 23.5889 33.8573 22.7617 34.3677 22.251C34.8782 21.7402 35.7058 21.7402 36.2163 22.251C36.7268 22.7617 36.7268 23.5889 36.2163 24.0996ZM33.3733 25.0938C34.433 26.1533 36.151 26.1533 37.2107 25.0938C38.2704 24.0342 38.2704 22.3164 37.2107 21.2568C36.151 20.1973 34.433 20.1973 33.3733 21.2568C32.3137 22.3164 32.3137 24.0342 33.3733 25.0938Z" fill="url(#paint_linear_84_3568_0)" fill-opacity="1.000000" fill-rule="evenodd"/>
		<path id="path4085 (Stroke)" d="M20.0294 19.7578C20.0294 20.8623 20.9249 21.7578 22.0295 21.7578L26.1901 21.7578C27.2948 21.7578 28.1903 20.8623 28.1903 19.7578C28.1903 18.6533 27.2948 17.7578 26.1901 17.7578L22.0295 17.7578C20.9249 17.7578 20.0294 18.6533 20.0294 19.7578ZM22.0295 20.3516C21.7015 20.3516 21.4357 20.0859 21.4357 19.7578C21.4357 19.4297 21.7015 19.1641 22.0295 19.1641L26.1901 19.1641C26.5181 19.1641 26.7841 19.4297 26.7841 19.7578C26.7841 20.0859 26.5181 20.3516 26.1901 20.3516L22.0295 20.3516Z" fill="url(#paint_linear_84_3570_0)" fill-opacity="1.000000" fill-rule="evenodd"/>
		<path id="path4089 (Stroke)" d="M16.4456 14.4336C16.6282 14.0908 16.4983 13.665 16.1555 13.4824C15.441 13.1025 14.9353 12.3779 14.8575 11.5215C14.8094 10.9717 14.7823 10.4238 14.7797 9.87891C14.7777 9.49121 14.4614 9.17773 14.073 9.17969C13.6847 9.18164 13.3715 9.49805 13.3734 9.88672C13.3763 10.4736 13.4055 11.0596 13.4567 11.6445L13.4569 11.6465C13.5781 12.9883 14.3717 14.126 15.4944 14.7236C15.8372 14.9062 16.2629 14.7764 16.4456 14.4336Z" fill="url(#paint_linear_84_3572_0)" fill-opacity="1.000000" fill-rule="evenodd"/>
		<path id="path4093 (Stroke)" d="M30.7891 13.7666C26.7301 13.9258 22.6704 13.9424 18.6107 13.8154C18.2227 13.8027 17.8981 14.1074 17.886 14.4961C17.8738 14.8838 18.1786 15.209 18.5668 15.2207C22.6595 15.3486 26.7522 15.332 30.8439 15.1719L30.7891 13.7666ZM33.1425 11.5215C33.031 12.7588 32.0258 13.7188 30.7893 13.7666L30.7891 13.7666L33.1425 11.5215ZM33.1425 11.5215C33.1906 10.9717 33.2177 10.4248 33.2203 9.87988C33.2223 9.49121 33.5386 9.17773 33.9269 9.17969C34.3153 9.18164 34.6285 9.49805 34.6266 9.88672C34.6237 10.4736 34.5945 11.0605 34.5432 11.6445L34.5431 11.6465C34.3693 13.583 32.7928 15.0957 30.844 15.1719L33.1425 11.5215Z" fill="url(#paint_linear_84_3574_0)" fill-opacity="1.000000" fill-rule="evenodd"/>
	</g>
</svg>
