<svg width="16.000000" height="16.000000" viewBox="0 0 16 16" fill="none" xmlns="http://www.w3.org/2000/svg" xmlns:xlink="http://www.w3.org/1999/xlink">
	<desc>
			Created with Pixso.
	</desc>
	<defs>
		<clipPath id="clip52_1442">
			<rect id="Send" width="16.000000" height="16.000000" transform="translate(-0.333374 -0.332031)" fill="white" fill-opacity="0"/>
		</clipPath>
	</defs>
	<rect id="Send" width="16.000000" height="16.000000" transform="translate(-0.333374 -0.332031)" fill="#000000" fill-opacity="0"/>
	<g clip-path="url(#clip52_1442)">
		<path id="Vector" d="M13.95 1.38C13.62 1.04 13.12 0.91 12.66 1.05L1.93 4.17C1.45 4.3 1.1 4.69 1.01 5.18C0.92 5.68 1.25 6.32 1.68 6.58L5.03 8.65C5.38 8.86 5.82 8.81 6.11 8.52L9.95 4.65C10.14 4.45 10.46 4.45 10.66 4.65C10.85 4.85 10.85 5.16 10.66 5.36L6.81 9.23C6.52 9.52 6.47 9.96 6.68 10.31L8.73 13.7C8.97 14.1 9.38 14.33 9.84 14.33C9.89 14.33 9.95 14.33 10 14.32C10.52 14.25 10.94 13.9 11.09 13.4L14.27 2.68C14.41 2.22 14.29 1.73 13.95 1.38Z" fill="#FFFFFF" fill-opacity="1.000000" fill-rule="nonzero"/>
	</g>
</svg>
